<?xml version="1.0" standalone="no"?>
<!DOCTYPE svg PUBLIC "-//W3C//DTD SVG 20010904//EN"
 "http://www.w3.org/TR/2001/REC-SVG-20010904/DTD/svg10.dtd">
<svg version="1.0" xmlns="http://www.w3.org/2000/svg"
 width="300.000000pt" height="200.000000pt" viewBox="0 0 300.000000 200.000000"
 preserveAspectRatio="xMidYMid meet">
<metadata>
Created by potrace 1.10, written by Peter Selinger 2001-2011
</metadata>
<g transform="translate(0.000000,200.000000) scale(0.100000,-0.100000)"
fill="#000000" stroke="none">
<path d="M96 1963 c9 -49 11 -53 35 -53 14 0 19 -7 19 -25 0 -14 5 -25 11 -25
6 0 8 7 5 16 -3 9 -6 22 -6 29 0 8 -10 15 -22 17 -19 2 -24 10 -26 41 -2 20
-8 37 -13 37 -6 0 -7 -15 -3 -37z"/>
<path d="M230 1974 c0 -23 2 -25 15 -14 9 7 18 10 22 7 11 -11 -19 -37 -42
-37 -21 0 -63 -35 -53 -45 3 -3 13 4 23 15 10 11 28 20 40 20 31 0 47 23 39
54 -6 25 -7 26 -21 9 -14 -17 -14 -17 -9 0 3 9 1 17 -4 17 -6 0 -10 -12 -10
-26z"/>
<path d="M357 1978 c-4 -12 -4 -24 -2 -26 5 -5 193 -32 225 -32 24 0 26 4 25
40 0 22 -3 40 -7 40 -5 0 -8 -14 -8 -30 0 -34 14 -33 -145 -9 -33 5 -63 9 -67
9 -4 0 -5 7 -2 15 4 8 2 15 -4 15 -5 0 -12 -10 -15 -22z"/>
<path d="M440 1985 c0 -9 9 -15 24 -15 13 0 31 -3 39 -6 15 -5 33 24 21 35 -4
3 -9 0 -11 -6 -3 -7 -18 -13 -34 -13 -18 0 -28 4 -24 10 3 6 1 10 -4 10 -6 0
-11 -7 -11 -15z"/>
<path d="M695 1990 c-4 -6 -1 -10 6 -10 8 0 8 -4 -1 -15 -10 -12 -10 -15 1
-15 11 0 11 -2 -1 -10 -9 -6 -10 -10 -3 -10 7 0 10 -15 9 -40 -2 -22 1 -40 6
-40 4 0 8 -7 8 -15 0 -16 52 -19 145 -7 l50 7 -3 75 c-2 41 -8 79 -13 84 -5 6
-6 -24 -2 -72 l6 -82 -62 0 c-33 0 -64 -1 -68 -2 -5 -2 -11 32 -15 76 -4 43
-10 81 -13 84 -3 3 -2 -33 1 -81 5 -67 4 -87 -6 -87 -7 0 -10 8 -7 20 3 11 0
20 -6 20 -7 0 -5 5 3 10 8 5 10 10 5 10 -7 0 -11 21 -10 50 1 47 -15 74 -30
50z"/>
<path d="M779 1977 c-7 -15 -7 -31 0 -50 9 -22 16 -27 43 -26 31 2 32 2 5 6
-35 6 -54 41 -38 72 7 11 9 21 6 21 -3 0 -10 -10 -16 -23z"/>
<path d="M858 1970 c2 -18 0 -30 -7 -30 -6 0 -10 10 -8 23 1 16 -3 22 -18 22
-16 0 -20 -7 -20 -30 0 -25 4 -30 27 -32 34 -2 52 19 44 52 -9 35 -23 31 -18
-5z"/>
<path d="M950 1988 c0 -4 5 -8 11 -8 6 0 9 -20 7 -52 l-3 -52 49 -9 c61 -10
76 -5 76 28 0 16 6 25 15 25 8 0 15 9 15 21 0 13 -4 18 -11 13 -9 -5 -10 1 -5
22 l6 29 -14 -25 -14 -24 -5 24 c-4 21 -4 20 -6 -7 0 -17 3 -34 7 -37 11 -7 3
-66 -9 -66 -11 0 -11 3 1 34 6 16 6 27 0 31 -6 4 -10 15 -10 27 0 15 -5 19
-20 15 -12 -3 -24 1 -30 11 -5 10 -10 12 -10 5 0 -7 -8 -13 -17 -13 -15 0 -16
2 -3 10 12 7 10 9 -8 7 -12 0 -22 -5 -22 -9z m67 -59 c14 -5 28 -7 31 -4 3 3
0 5 -6 5 -7 0 -12 9 -12 20 0 11 4 20 9 20 11 0 21 -52 15 -77 -5 -18 -10 -19
-41 -13 -19 5 -36 10 -37 12 -2 1 -1 21 2 43 3 22 8 32 10 22 2 -10 15 -23 29
-28z"/>
<path d="M1468 1980 c31 -21 33 -21 58 -5 14 9 23 19 20 22 -3 3 -12 0 -21 -7
-14 -12 -25 -11 -70 5 -11 4 -5 -3 13 -15z"/>
<path d="M1596 1968 c9 -53 12 -58 34 -58 15 0 20 -7 20 -25 0 -14 5 -25 11
-25 6 0 8 7 5 16 -3 9 -6 22 -6 29 0 8 -10 15 -22 17 -19 2 -24 10 -26 41 -2
20 -7 37 -12 37 -5 0 -7 -15 -4 -32z"/>
<path d="M1756 1991 c-5 -8 -3 -16 5 -21 18 -12 -6 -40 -36 -40 -21 0 -63 -35
-53 -45 3 -3 13 4 23 15 10 11 28 20 40 20 33 0 49 24 38 57 -7 19 -12 23 -17
14z"/>
<path d="M1857 1978 c-4 -12 -4 -24 -2 -26 5 -5 193 -32 225 -32 24 0 26 4 25
40 0 22 -3 40 -7 40 -5 0 -8 -14 -8 -30 0 -34 14 -33 -145 -9 -33 5 -63 9 -67
9 -4 0 -5 7 -2 15 4 8 2 15 -4 15 -5 0 -12 -10 -15 -22z"/>
<path d="M1940 1985 c0 -9 9 -15 24 -15 13 0 31 -3 39 -6 15 -5 33 24 21 35
-4 3 -9 0 -11 -6 -3 -7 -18 -13 -34 -13 -18 0 -28 4 -24 10 3 6 1 10 -4 10 -6
0 -11 -7 -11 -15z"/>
<path d="M2195 1990 c-4 -6 -1 -10 6 -10 8 0 8 -4 -1 -15 -10 -12 -10 -15 1
-15 11 0 11 -2 -1 -10 -9 -6 -10 -10 -3 -10 7 0 10 -15 9 -40 -2 -22 1 -40 6
-40 4 0 8 -7 8 -15 0 -16 52 -19 145 -7 l50 7 -3 75 c-2 41 -8 79 -13 84 -5 6
-6 -24 -2 -72 l6 -82 -57 -1 c-31 -1 -62 -2 -68 -3 -9 -1 -15 24 -20 78 -4 43
-10 81 -13 84 -3 3 -2 -33 1 -81 5 -67 4 -87 -6 -87 -7 0 -10 8 -7 20 3 11 0
20 -6 20 -7 0 -5 5 3 10 8 5 10 10 5 10 -7 0 -11 21 -10 50 1 47 -15 74 -30
50z"/>
<path d="M2279 1977 c-7 -15 -7 -31 0 -50 9 -22 16 -27 43 -26 31 2 32 2 5 6
-35 6 -54 41 -38 72 7 11 9 21 6 21 -3 0 -10 -10 -16 -23z"/>
<path d="M2358 1983 c10 -20 5 -43 -9 -43 -5 0 -8 10 -6 23 1 16 -3 22 -18 22
-16 0 -20 -7 -20 -30 0 -25 4 -30 27 -32 15 -1 32 5 38 13 14 15 5 64 -11 64
-6 0 -6 -6 -1 -17z"/>
<path d="M2450 1988 c0 -4 5 -8 11 -8 6 0 9 -20 7 -52 l-3 -52 49 -9 c61 -10
76 -5 76 29 0 19 4 25 15 20 11 -4 15 2 15 20 0 16 -4 23 -11 18 -9 -5 -10 1
-5 22 l6 29 -14 -25 -14 -24 -5 24 c-4 21 -4 20 -6 -7 0 -17 3 -34 7 -37 11
-7 3 -66 -9 -66 -12 0 -11 17 1 40 7 13 7 21 0 25 -5 3 -10 15 -10 27 0 15 -5
19 -20 15 -12 -3 -24 1 -30 11 -5 10 -10 12 -10 5 0 -7 -8 -13 -17 -13 -15 0
-16 2 -3 10 12 7 10 9 -8 7 -12 0 -22 -5 -22 -9z m67 -57 c14 -6 28 -9 31 -6
3 3 0 5 -6 5 -7 0 -12 9 -12 20 0 11 4 20 9 20 11 0 21 -52 15 -77 -5 -19 -9
-19 -45 -10 -29 7 -39 14 -35 24 4 8 7 27 7 41 1 15 3 20 6 11 2 -9 16 -22 30
-28z"/>
<path d="M1157 1974 c-4 -4 -7 -38 -7 -76 0 -52 4 -70 15 -74 8 -4 15 -17 15
-30 0 -30 11 -30 39 0 20 21 28 23 84 19 81 -7 89 2 85 94 l-3 68 -111 3 c-60
1 -113 -1 -117 -4z m207 -10 c20 -8 23 -118 4 -130 -6 -4 -38 -6 -71 -5 -50 2
-63 -1 -85 -21 -19 -18 -24 -19 -19 -6 4 12 0 21 -13 28 -16 9 -20 21 -20 69
0 32 3 61 7 64 8 9 176 9 197 1z"/>
<path d="M1205 1930 c3 -5 36 -9 73 -9 52 1 60 3 37 9 -46 12 -117 12 -110 0z"/>
<path d="M1200 1870 c0 -5 24 -10 53 -9 38 0 47 3 32 9 -28 12 -85 12 -85 0z"/>
<path d="M2657 1974 c-14 -14 -8 -143 7 -151 8 -4 16 -19 18 -32 l3 -24 30 25
c27 22 37 24 90 20 79 -5 87 4 83 95 l-3 68 -111 3 c-60 1 -113 -1 -117 -4z
m221 -68 c2 -32 -2 -64 -7 -69 -6 -6 -38 -9 -72 -8 -52 2 -65 -1 -87 -21 -19
-18 -24 -19 -19 -6 4 12 0 21 -13 28 -16 9 -20 21 -20 69 0 32 3 61 7 65 4 4
52 5 107 4 l101 -3 3 -59z"/>
<path d="M2710 1930 c8 -5 42 -9 75 -9 48 1 54 3 30 9 -46 12 -123 12 -105 0z"/>
<path d="M2700 1870 c0 -5 24 -10 53 -9 38 0 47 3 32 9 -28 12 -85 12 -85 0z"/>
<path d="M40 1940 c0 -15 5 -20 18 -18 9 2 17 10 17 18 0 8 -8 16 -17 18 -13
2 -18 -3 -18 -18z"/>
<path d="M1540 1940 c0 -15 5 -20 18 -18 9 2 17 10 17 18 0 8 -8 16 -17 18
-13 2 -18 -3 -18 -18z"/>
<path d="M635 1938 c-10 -25 -3 -36 18 -29 16 6 16 9 3 26 -13 18 -15 19 -21
3z"/>
<path d="M2137 1943 c-4 -3 -7 -14 -7 -24 0 -12 6 -16 20 -12 11 3 20 9 20 13
0 12 -26 30 -33 23z"/>
<path d="M1422 1932 c-9 -7 -8 -13 8 -27 11 -10 20 -13 20 -7 0 6 3 17 6 26 7
17 -12 21 -34 8z"/>
<path d="M2922 1932 c-9 -7 -8 -13 8 -27 11 -10 20 -13 20 -7 0 6 3 17 6 26 7
17 -12 21 -34 8z"/>
<path d="M390 1900 c0 -11 7 -20 15 -20 8 0 15 9 15 20 0 11 -7 20 -15 20 -8
0 -15 -9 -15 -20z"/>
<path d="M1890 1900 c0 -11 7 -20 15 -20 8 0 15 9 15 20 0 11 -7 20 -15 20 -8
0 -15 -9 -15 -20z"/>
<path d="M18 1893 c-31 -8 -20 -19 15 -15 42 5 77 -27 77 -71 1 -26 -10 -41
-57 -85 l-58 -54 47 33 c67 45 82 65 82 105 0 53 -57 100 -106 87z"/>
<path d="M223 1876 c-56 -49 -25 -158 48 -164 20 -2 42 4 54 13 20 17 20 17 0
9 -49 -17 -70 -15 -93 9 -35 37 -34 93 2 123 34 30 57 30 83 2 30 -32 35 -88
8 -88 -8 0 -17 14 -21 36 -7 39 -26 53 -49 34 -18 -15 -20 -71 -3 -88 15 -15
48 -16 48 -2 0 6 11 10 24 10 44 0 46 61 3 108 -27 29 -69 28 -104 -2z m72
-74 c5 -25 3 -33 -10 -38 -30 -12 -49 48 -23 74 15 15 24 6 33 -36z"/>
<path d="M1502 1885 c-43 -19 -52 -42 -51 -132 1 -124 2 -125 91 -55 78 62 95
91 79 134 -19 51 -70 73 -119 53z m87 -29 c16 -17 22 -33 19 -57 -2 -27 -15
-43 -68 -86 l-65 -52 -7 42 c-14 87 -10 126 17 152 31 32 74 33 104 1z"/>
<path d="M1500 1840 c-24 -24 -25 -38 -4 -68 18 -27 55 -29 77 -4 23 26 21 58
-5 76 -30 21 -44 20 -68 -4z m70 -15 c6 -8 9 -23 5 -34 -8 -25 -41 -36 -60
-21 -15 13 -20 51 -8 63 12 12 50 7 63 -8z"/>
<path d="M1723 1876 c-56 -49 -25 -158 48 -164 20 -2 42 4 54 13 20 17 20 17
0 9 -66 -24 -106 -3 -119 62 -8 34 19 78 55 89 40 13 98 -50 83 -90 -11 -27
-33 -16 -40 21 -12 62 -64 53 -64 -11 0 -42 24 -64 51 -47 10 7 27 12 38 12
39 0 38 64 -2 108 -27 29 -69 28 -104 -2z m72 -74 c5 -25 3 -33 -10 -38 -30
-12 -49 48 -23 74 15 15 24 6 33 -36z"/>
<path d="M512 1874 c-8 -14 -12 -14 -32 -3 -18 11 -24 11 -27 2 -3 -7 -16 -13
-30 -13 l-26 0 7 -77 c3 -42 6 -96 6 -120 l0 -43 63 0 c34 0 92 3 130 7 l67 6
0 72 c0 40 -3 93 -6 119 -6 40 -10 46 -30 46 -13 0 -24 5 -24 10 0 14 -27 12
-33 -2 -3 -10 -9 -10 -26 0 -26 15 -28 15 -39 -4z m64 -25 c3 -5 13 -9 22 -9
15 0 15 2 2 10 -11 7 -7 10 18 10 20 0 32 -5 32 -14 0 -9 -21 -15 -67 -19
-101 -10 -173 -8 -173 3 0 16 33 26 38 12 2 -7 11 -12 20 -12 15 0 15 2 2 10
-12 8 -9 10 12 10 15 0 30 -4 33 -10 12 -19 26 -11 16 9 -9 16 -7 17 15 13 13
-2 27 -8 30 -13z m78 -81 c3 -29 6 -69 6 -89 l0 -36 -112 -6 c-62 -3 -116 -3
-120 0 -5 2 -8 42 -8 88 l0 84 98 4 c53 1 104 4 113 5 12 2 18 -10 23 -50z"/>
<path d="M2012 1874 c-8 -14 -12 -14 -32 -3 -18 11 -24 11 -27 2 -3 -7 -13
-13 -23 -13 -10 0 -21 -4 -25 -9 -3 -6 -2 -60 1 -120 l7 -111 61 0 c34 0 91 3
129 7 l67 6 0 72 c0 40 -3 93 -6 119 -6 40 -10 46 -30 46 -13 0 -24 5 -24 10
0 14 -27 12 -33 -2 -3 -10 -9 -10 -26 0 -26 15 -28 15 -39 -4z m63 -25 c5 -5
16 -9 25 -9 13 0 13 1 0 10 -11 7 -7 10 18 10 20 0 32 -5 32 -14 0 -9 -21 -15
-67 -19 -101 -10 -173 -8 -173 3 0 16 33 26 38 12 2 -7 11 -12 20 -12 15 0 15
2 2 10 -12 8 -10 10 11 10 14 0 30 -5 37 -12 9 -9 15 -9 25 1 7 9 7 11 1 8 -7
-4 -15 0 -18 9 -5 12 -1 14 17 9 12 -4 26 -11 32 -16z m79 -81 c3 -29 6 -70 6
-90 l0 -38 -59 0 c-32 0 -86 -3 -120 -6 l-61 -7 0 91 0 91 93 4 c50 1 101 4
113 5 18 2 22 -5 28 -50z"/>
<path d="M2966 1858 c-11 -16 -16 -46 -16 -98 0 -101 7 -123 31 -109 10 5 19
15 19 21 0 7 -4 7 -14 -1 -11 -9 -14 -1 -20 41 -10 87 -7 114 15 142 11 14 16
26 10 26 -5 0 -17 -10 -25 -22z"/>
<path d="M13 1853 c-24 -9 -13 -20 15 -15 34 4 56 -18 47 -47 -8 -26 -42 -36
-62 -19 -14 11 -15 11 -11 -2 7 -22 47 -24 69 -4 44 40 -2 110 -58 87z"/>
<path d="M1040 1811 c-30 -10 -54 -23 -53 -29 1 -6 -11 -14 -28 -17 -17 -4
-33 -13 -35 -20 -3 -7 4 -47 15 -87 25 -89 26 -98 6 -98 -17 0 -20 -16 -5 -25
5 -3 46 4 91 16 60 16 83 27 86 40 3 11 13 19 23 19 32 0 42 24 30 72 -44 167
-36 158 -130 129z m90 -33 c6 -24 18 -65 26 -92 8 -27 13 -51 11 -52 -1 -1
-14 -5 -29 -9 -25 -6 -28 -4 -42 45 -8 28 -18 67 -22 86 -9 50 13 43 26 -8 23
-87 33 -118 38 -113 7 7 -29 138 -42 152 -9 10 -21 10 -46 3 -62 -18 -67 -9
-5 10 33 10 63 19 67 19 4 1 12 -18 18 -41z m-52 -85 c12 -49 22 -93 22 -99 0
-6 -15 -11 -32 -11 -18 0 -47 -3 -63 -7 l-31 -8 -18 70 c-27 107 -28 103 34
123 30 10 57 18 60 18 3 1 15 -38 28 -86z"/>
<path d="M1000 1730 c0 -6 12 -15 26 -20 35 -14 36 -13 24 10 -11 21 -50 28
-50 10z"/>
<path d="M1025 1691 c16 -7 13 -9 -20 -16 l-40 -8 40 -14 40 -13 -40 4 c-22 3
-31 2 -21 -1 15 -4 16 -7 5 -14 -12 -7 -12 -9 1 -9 13 0 13 -1 0 -10 -11 -7
-11 -10 -2 -10 7 0 11 -4 7 -9 -3 -6 7 -6 27 0 18 5 35 9 38 9 3 0 -2 5 -10
10 -12 8 -12 10 5 11 20 0 20 0 0 9 -20 9 -20 9 0 10 20 1 20 1 0 10 -20 9
-20 9 0 10 20 1 20 1 0 10 -13 6 -15 9 -5 9 13 1 13 2 0 11 -8 5 -22 9 -30 9
-10 0 -8 -3 5 -8z"/>
<path d="M2540 1811 c-30 -10 -54 -23 -53 -29 1 -6 -11 -14 -28 -17 -17 -4
-33 -13 -35 -20 -3 -7 4 -47 15 -87 25 -89 26 -98 6 -98 -17 0 -20 -16 -5 -25
5 -3 46 4 90 15 57 16 81 27 85 41 4 10 14 19 24 19 33 0 43 24 31 72 -44 167
-36 158 -130 129z m90 -33 c6 -24 18 -65 26 -92 8 -27 13 -51 11 -52 -1 -1
-14 -5 -29 -9 -25 -6 -28 -4 -42 45 -8 28 -18 67 -22 86 -9 50 13 43 26 -8 23
-87 33 -118 38 -113 7 6 -28 137 -41 153 -5 7 -17 10 -26 8 -51 -15 -67 -13
-21 4 30 10 58 19 62 19 4 1 12 -18 18 -41z m-52 -85 c12 -49 22 -93 22 -99 0
-6 -15 -11 -32 -11 -18 0 -47 -3 -63 -7 l-31 -8 -19 79 c-11 43 -20 82 -20 88
0 7 88 41 115 44 3 1 15 -38 28 -86z"/>
<path d="M2505 1730 c-3 -6 6 -15 20 -20 36 -14 37 -13 25 10 -11 21 -35 27
-45 10z"/>
<path d="M2525 1691 c16 -7 13 -9 -20 -16 l-40 -8 40 -14 40 -13 -40 4 c-22 3
-31 2 -21 -1 15 -4 16 -7 5 -14 -12 -7 -12 -9 1 -9 13 0 13 -1 0 -10 -11 -7
-11 -10 -2 -10 7 0 11 -4 7 -9 -3 -6 7 -6 27 0 18 5 35 9 38 9 3 0 -2 5 -10
10 -12 8 -12 10 5 11 20 0 20 0 0 9 -20 9 -20 9 0 10 20 1 20 1 0 10 -20 9
-20 9 0 10 20 1 20 1 0 10 -13 6 -15 9 -5 9 13 1 13 2 0 11 -8 5 -22 9 -30 9
-10 0 -8 -3 5 -8z"/>
<path d="M864 1799 c-10 -17 13 -36 27 -22 12 12 4 33 -11 33 -5 0 -12 -5 -16
-11z"/>
<path d="M1383 1794 c-8 -21 13 -42 28 -27 13 13 5 43 -11 43 -6 0 -13 -7 -17
-16z"/>
<path d="M2364 1799 c-10 -17 13 -36 27 -22 12 12 4 33 -11 33 -5 0 -12 -5
-16 -11z"/>
<path d="M2883 1794 c-8 -21 13 -42 28 -27 13 13 5 43 -11 43 -6 0 -13 -7 -17
-16z"/>
<path d="M748 1774 c-86 -46 -50 -184 47 -184 51 0 95 44 95 95 0 49 -15 74
-55 91 -42 17 -53 17 -87 -2z m96 -25 c23 -18 27 -28 24 -63 -2 -28 -7 -40
-17 -38 -8 2 -11 -3 -8 -12 6 -16 -12 -26 -49 -26 -38 0 -61 16 -73 50 -12 36
2 86 21 74 6 -4 8 -3 4 4 -8 13 21 31 50 32 12 0 33 -10 48 -21z"/>
<path d="M783 1718 c2 -32 6 -38 24 -38 12 0 25 5 28 10 3 6 -2 10 -12 10 -12
0 -24 11 -30 28 -11 27 -11 26 -10 -10z"/>
<path d="M2253 1775 c-91 -39 -59 -185 42 -185 51 0 95 44 95 95 0 49 -15 74
-55 91 -41 17 -42 17 -82 -1z m89 -25 c29 -22 39 -56 27 -88 -6 -16 -13 -20
-26 -15 -15 6 -16 4 -5 -9 10 -13 10 -17 -4 -22 -49 -19 -97 0 -113 44 -12 36
2 86 21 74 6 -4 8 -3 4 4 -8 13 21 31 50 32 12 0 33 -9 46 -20z"/>
<path d="M2283 1718 c2 -32 6 -38 25 -38 12 0 22 5 22 11 0 5 -5 7 -10 4 -6
-4 -17 9 -25 27 l-14 33 2 -37z"/>
<path d="M1211 1634 c-23 -75 -40 -138 -38 -140 12 -13 149 -46 156 -38 10 10
81 240 81 260 0 11 -116 54 -147 54 -5 0 -28 -61 -52 -136z m127 81 c61 -20
60 -7 15 -153 -19 -61 -29 -82 -40 -78 -7 3 -39 13 -69 22 -37 10 -54 20 -51
29 3 7 15 45 27 86 32 106 38 119 52 115 7 -3 37 -12 66 -21z"/>
<path d="M1272 1668 c-7 -7 -12 -18 -12 -25 0 -7 -9 -22 -20 -33 -35 -35 -26
-57 31 -70 58 -14 68 -8 69 45 0 17 0 41 0 54 1 37 -42 55 -68 29z m46 -7 c21
-13 10 -46 -16 -49 -27 -4 -40 22 -22 43 14 17 20 18 38 6z m-13 -66 c21 -2
30 -22 17 -42 -9 -14 -92 5 -92 22 0 19 24 36 40 29 8 -4 24 -7 35 -9z"/>
<path d="M2711 1634 c-23 -75 -40 -138 -38 -140 12 -13 149 -46 156 -38 10 10
81 240 81 260 0 11 -116 54 -147 54 -5 0 -28 -61 -52 -136z m127 81 c61 -20
60 -7 15 -153 -19 -61 -29 -82 -40 -78 -7 3 -39 13 -69 22 -37 10 -54 20 -51
29 3 7 15 45 27 86 32 106 38 119 52 115 7 -3 37 -12 66 -21z"/>
<path d="M2772 1668 c-7 -7 -12 -18 -12 -25 0 -7 -9 -22 -20 -33 -35 -35 -26
-57 31 -70 58 -14 68 -8 69 45 0 17 0 41 0 54 1 37 -42 55 -68 29z m46 -7 c21
-13 10 -46 -16 -49 -27 -4 -40 22 -22 43 14 17 20 18 38 6z m-13 -66 c21 -2
30 -22 17 -42 -9 -14 -92 5 -92 22 0 19 24 36 40 29 8 -4 24 -7 35 -9z"/>
<path d="M95 1685 c-14 -13 -25 -36 -25 -50 0 -28 31 -65 55 -65 8 0 15 -9 15
-21 0 -20 55 -79 75 -79 6 0 35 36 64 80 53 77 54 81 35 95 -24 19 -56 28 -85
23 -14 -2 -32 6 -46 20 -29 29 -58 28 -88 -3z m90 -19 c31 -47 -23 -104 -73
-77 -29 16 -37 48 -18 76 22 34 70 34 91 1z m105 -24 l23 -18 -48 -72 c-47
-71 -47 -71 -72 -55 -14 9 -29 28 -34 41 -8 20 -6 27 12 40 12 8 27 30 35 48
17 39 48 45 84 16z"/>
<path d="M1595 1685 c-14 -13 -25 -36 -25 -50 0 -27 31 -65 54 -65 8 0 17 -13
21 -28 5 -27 52 -72 73 -72 5 0 33 36 62 80 51 77 52 81 34 95 -24 19 -56 28
-85 23 -14 -2 -32 6 -46 20 -29 29 -58 28 -88 -3z m83 -7 c18 -18 14 -63 -8
-83 -45 -41 -110 18 -76 70 18 27 63 34 84 13z m112 -36 l23 -18 -48 -72 c-47
-71 -47 -71 -72 -55 -14 9 -29 28 -34 41 -8 20 -6 27 12 40 12 8 27 30 35 48
17 39 48 45 84 16z"/>
<path d="M351 1636 c-12 -14 -5 -26 16 -26 15 0 18 26 4 34 -5 3 -14 0 -20 -8z"/>
<path d="M1851 1636 c-12 -14 -5 -26 16 -26 15 0 18 26 4 34 -5 3 -14 0 -20
-8z"/>
<path d="M4 1598 c-5 -8 -2 -9 9 -5 13 5 22 -4 37 -32 21 -42 17 -52 -27 -65
-22 -7 -22 -8 -7 -38 14 -28 14 -31 -3 -44 -19 -14 -15 -18 11 -8 18 7 22 39
6 49 -5 3 -10 13 -10 22 0 11 7 14 24 11 34 -7 38 24 12 80 -20 42 -38 53 -52
30z"/>
<path d="M1467 1584 c-49 -26 -51 -30 -32 -76 5 -12 -2 -21 -24 -33 -17 -8
-31 -18 -31 -21 0 -10 40 -83 49 -88 5 -4 12 -2 16 4 3 5 2 10 -4 10 -11 0
-41 51 -41 69 0 19 40 34 55 21 10 -8 19 -8 33 -1 16 8 21 6 31 -15 14 -32 16
-30 -19 -44 -37 -15 -66 -60 -40 -60 6 0 10 7 10 15 0 9 16 23 35 32 34 16 46
45 25 58 -5 3 -10 13 -10 22 0 11 7 14 24 11 20 -4 26 0 28 16 4 25 -32 106
-46 106 -6 -1 -33 -12 -59 -26z m83 -23 c22 -43 21 -45 -43 -74 l-37 -17 -20
33 c-11 17 -20 35 -20 39 0 6 83 55 97 58 2 0 12 -18 23 -39z"/>
<path d="M453 1585 c-8 -13 -14 -14 -37 -5 -36 13 -43 8 -57 -43 -8 -31 -8
-46 0 -60 7 -10 9 -22 6 -27 -8 -13 18 -13 31 0 6 6 25 5 53 -2 32 -8 48 -8
62 0 15 9 19 8 24 -8 7 -23 25 -27 25 -6 0 8 7 16 16 18 18 3 46 79 35 96 -3
6 -33 18 -66 27 -33 10 -65 20 -72 22 -6 2 -15 -3 -20 -12z m89 -21 c32 -9 58
-22 58 -29 0 -27 -23 -75 -36 -75 -8 0 -14 -6 -14 -12 0 -8 -4 -7 -10 3 -5 9
-30 22 -55 29 -25 7 -45 15 -45 19 0 24 23 81 32 81 7 0 38 -7 70 -16z m-107
-39 c0 -36 3 -41 33 -50 17 -5 32 -13 32 -18 0 -6 -14 -6 -32 -2 -18 4 -44 8
-58 9 -37 1 -49 22 -37 68 8 34 13 39 36 36 23 -3 26 -7 26 -43z"/>
<path d="M465 1513 c13 -12 95 -36 102 -29 3 2 -14 10 -37 16 -23 6 -49 14
-58 17 -11 4 -14 3 -7 -4z"/>
<path d="M650 1585 c-15 -18 -13 -20 19 -30 20 -6 23 -4 18 10 -4 9 -7 21 -7
26 0 14 -16 11 -30 -6z"/>
<path d="M1953 1585 c-8 -13 -14 -14 -37 -5 -36 13 -41 9 -56 -45 -10 -35 -10
-48 0 -59 6 -9 9 -20 5 -26 -8 -13 18 -13 31 0 6 6 25 5 53 -2 32 -8 48 -8 62
0 15 9 19 8 24 -8 7 -23 25 -27 25 -6 0 8 7 16 16 18 18 3 46 79 35 96 -3 6
-33 18 -66 27 -33 10 -65 20 -72 22 -6 2 -15 -3 -20 -12z m89 -21 c32 -9 58
-22 58 -29 0 -27 -23 -75 -36 -75 -8 0 -14 -6 -14 -12 0 -8 -4 -7 -10 3 -5 9
-30 22 -55 29 -25 7 -45 15 -45 19 0 24 23 81 32 81 7 0 38 -7 70 -16z m-107
-39 c0 -36 3 -41 33 -50 17 -5 32 -13 32 -18 0 -6 -14 -6 -32 -2 -18 4 -44 8
-58 9 -37 1 -49 22 -37 68 8 34 13 39 36 36 23 -3 26 -7 26 -43z"/>
<path d="M1965 1513 c13 -12 95 -36 102 -29 3 2 -14 10 -37 16 -23 6 -49 14
-58 17 -11 4 -14 3 -7 -4z"/>
<path d="M2150 1585 c-15 -18 -13 -20 19 -30 20 -6 23 -4 18 10 -4 9 -7 21 -7
26 0 14 -16 11 -30 -6z"/>
<path d="M2957 1579 c-39 -20 -41 -26 -22 -71 5 -12 -2 -21 -24 -33 -17 -8
-31 -18 -31 -21 0 -10 40 -83 49 -88 5 -4 12 -2 16 4 3 5 2 10 -4 10 -11 0
-41 51 -41 69 0 19 40 34 55 21 11 -9 18 -9 32 0 17 11 17 11 0 6 -12 -4 -23
4 -37 27 -26 42 -26 45 15 64 19 9 35 20 35 25 0 10 2 11 -43 -13z"/>
<path d="M781 1553 c-40 -14 -69 -28 -63 -32 6 -4 2 -27 -13 -64 l-24 -58 22
-8 c12 -5 51 -20 86 -35 36 -14 68 -26 72 -26 4 0 15 21 25 46 10 25 24 52 32
60 12 12 8 23 -23 79 -20 36 -37 65 -38 64 -1 0 -35 -12 -76 -26z m101 -42
l28 -48 -27 -61 c-22 -53 -28 -60 -44 -52 -16 9 -17 13 -3 45 l14 35 -36 15
c-49 20 -51 20 -64 -19 -9 -27 -15 -33 -31 -29 -11 3 -18 11 -16 17 2 6 12 34
22 62 16 47 22 53 64 67 65 21 63 22 93 -32z m-52 -93 c0 -3 -4 -18 -10 -32
-9 -24 -12 -25 -37 -14 -15 7 -29 13 -31 13 -1 1 3 15 9 32 10 29 12 30 40 20
16 -6 29 -15 29 -19z"/>
<path d="M2281 1553 c-40 -14 -69 -28 -63 -32 6 -4 2 -27 -13 -64 l-24 -58 22
-8 c12 -5 51 -20 86 -35 36 -14 68 -26 72 -26 4 0 15 21 25 46 10 25 24 52 32
60 12 12 8 23 -23 79 -20 36 -37 65 -38 64 -1 0 -35 -12 -76 -26z m101 -42
l28 -48 -27 -61 c-22 -53 -28 -60 -44 -52 -16 9 -17 13 -3 45 l14 35 -36 15
c-49 20 -51 20 -64 -19 -9 -27 -15 -33 -31 -29 -11 3 -18 11 -16 17 3 6 13 34
23 62 16 47 22 53 63 67 65 21 63 22 93 -32z m-52 -93 c0 -3 -4 -18 -10 -32
-9 -24 -12 -25 -37 -14 -15 7 -29 13 -31 13 -1 1 3 15 9 32 10 29 12 30 40 20
16 -6 29 -15 29 -19z"/>
<path d="M95 1551 c-8 -15 3 -31 21 -31 9 0 14 7 12 17 -4 20 -24 28 -33 14z"/>
<path d="M1596 1553 c-13 -14 -5 -33 14 -33 11 0 20 6 20 14 0 15 -24 28 -34
19z"/>
<path d="M2600 1510 c0 -23 13 -26 29 -6 9 11 8 15 -5 20 -23 9 -24 8 -24 -14z"/>
<path d="M1001 1441 c-23 -54 -26 -77 -12 -85 5 -3 7 -15 4 -26 -6 -23 -4 -24
30 -11 17 7 35 4 67 -10 24 -11 53 -19 64 -17 27 4 72 96 59 117 -9 15 -155
81 -178 81 -7 0 -22 -22 -34 -49z m112 8 c100 -44 99 -41 74 -99 -12 -28 -26
-50 -33 -50 -7 0 -34 9 -60 21 -36 15 -54 18 -70 10 -19 -8 -21 -7 -17 10 3
11 0 19 -7 19 -8 0 -10 8 -6 23 8 35 35 97 42 97 3 0 38 -14 77 -31z"/>
<path d="M1089 1398 c-7 -18 -14 -36 -17 -40 -2 -5 4 -8 14 -8 9 0 15 3 11 6
-3 4 0 19 8 35 17 33 18 39 6 39 -5 0 -15 -15 -22 -32z"/>
<path d="M2500 1435 c-14 -34 -19 -61 -15 -72 5 -10 7 -26 6 -35 -3 -21 -1
-21 31 -9 18 7 38 3 78 -14 30 -13 59 -21 65 -19 5 3 21 29 34 60 21 47 22 57
10 69 -16 15 -155 75 -174 75 -7 0 -23 -25 -35 -55z m111 14 c41 -17 79 -35
85 -40 15 -12 -23 -109 -42 -109 -7 0 -34 9 -60 21 -36 15 -54 18 -70 10 -19
-8 -21 -7 -17 10 3 11 0 19 -7 19 -8 0 -10 8 -6 23 7 30 35 97 40 97 2 0 37
-14 77 -31z"/>
<path d="M2589 1398 c-7 -18 -14 -36 -17 -40 -2 -5 4 -8 14 -8 9 0 15 3 11 6
-3 4 0 19 8 35 17 33 18 39 6 39 -5 0 -15 -15 -22 -32z"/>
<path d="M80 1463 c0 -12 -6 -23 -12 -26 -7 -2 -10 -8 -5 -13 4 -4 15 -1 23 8
12 12 14 20 5 34 -10 18 -10 18 -11 -3z"/>
<path d="M1580 1463 c0 -12 -6 -23 -12 -26 -7 -2 -10 -8 -5 -13 4 -4 15 -1 23
8 12 12 14 20 5 34 -10 18 -10 18 -11 -3z"/>
<path d="M138 1438 c-7 -19 18 -39 37 -32 9 4 14 13 11 21 -3 8 -6 17 -6 19 0
10 -39 3 -42 -8z"/>
<path d="M1640 1438 c0 -7 4 -19 8 -26 11 -17 45 -4 38 15 -3 8 -6 17 -6 19 0
2 -9 4 -20 4 -11 0 -20 -6 -20 -12z"/>
<path d="M230 1413 c-111 -57 -107 -214 6 -265 55 -24 95 -19 148 17 20 14 46
25 56 25 21 0 27 15 10 25 -5 3 -10 27 -10 52 0 120 -111 197 -210 146z m136
-22 c40 -25 68 -83 60 -126 -4 -19 -2 -36 4 -40 15 -9 12 -25 -5 -25 -8 0 -31
-11 -51 -25 -91 -62 -214 -1 -214 106 0 42 34 98 70 116 36 19 101 16 136 -6z"/>
<path d="M340 1315 c-10 -11 -10 -19 -2 -27 15 -15 44 -2 40 19 -4 23 -22 27
-38 8z"/>
<path d="M281 1301 c-17 -11 -7 -41 13 -41 22 0 30 20 15 36 -9 8 -19 10 -28
5z"/>
<path d="M210 1260 c0 -13 7 -20 20 -20 13 0 20 7 20 20 0 13 -7 20 -20 20
-13 0 -20 -7 -20 -20z"/>
<path d="M1730 1413 c-111 -57 -107 -214 6 -265 55 -24 95 -19 148 17 20 14
46 25 56 25 21 0 27 15 10 25 -5 3 -10 27 -10 52 0 120 -111 197 -210 146z
m136 -22 c40 -25 68 -83 60 -126 -4 -19 -2 -36 4 -40 15 -9 12 -25 -5 -25 -8
0 -31 -11 -51 -25 -91 -62 -214 -1 -214 106 0 42 34 98 70 116 36 19 101 16
136 -6z"/>
<path d="M1840 1315 c-10 -11 -10 -19 -2 -27 15 -15 44 -2 40 19 -4 23 -22 27
-38 8z"/>
<path d="M1781 1301 c-17 -11 -7 -41 13 -41 22 0 30 20 15 36 -9 8 -19 10 -28
5z"/>
<path d="M1710 1260 c0 -13 7 -20 20 -20 13 0 20 7 20 20 0 13 -7 20 -20 20
-13 0 -20 -7 -20 -20z"/>
<path d="M422 1403 c2 -10 10 -18 18 -18 8 0 16 8 18 18 2 12 -3 17 -18 17
-15 0 -20 -5 -18 -17z"/>
<path d="M1311 1406 c-41 -15 -61 -41 -61 -79 0 -35 14 -63 37 -71 14 -6 13
-2 -5 17 -43 46 -17 120 43 120 14 0 25 5 25 13 0 8 -1 14 -2 13 -2 0 -18 -6
-37 -13z"/>
<path d="M1920 1399 c0 -25 33 -22 38 4 2 12 -3 17 -17 17 -15 0 -21 -6 -21
-21z"/>
<path d="M2813 1409 c-18 -5 -39 -19 -48 -31 -27 -40 -16 -108 22 -122 14 -6
13 -2 -5 17 -43 46 -17 120 43 120 14 0 25 5 25 13 0 8 -1 14 -2 13 -2 0 -17
-5 -35 -10z"/>
<path d="M2971 1391 c-22 -22 -27 -41 -11 -41 6 0 10 7 10 15 0 7 8 18 17 24
10 5 15 12 11 16 -3 4 -16 -3 -27 -14z"/>
<path d="M518 1381 c-26 -9 -50 -19 -53 -23 -6 -5 14 -69 53 -170 l11 -26 56
21 c31 11 54 25 52 31 -17 45 -16 52 6 61 23 10 24 25 6 72 -8 22 -14 25 -39
19 -22 -4 -30 -2 -30 9 0 22 -12 23 -62 6z m52 -21 c0 -5 -10 -12 -22 -16 -42
-12 -47 -21 -35 -61 6 -20 19 -38 29 -41 10 -2 18 -9 18 -16 0 -6 9 0 19 13
10 13 23 21 30 17 15 -10 14 -36 -1 -36 -9 0 -8 -4 2 -11 12 -9 12 -10 -3 -5
-27 9 -73 -4 -55 -15 8 -5 8 -9 2 -9 -17 0 -29 19 -52 85 -21 60 -25 98 -11
89 13 -7 59 7 53 17 -3 5 2 6 10 3 9 -3 16 -10 16 -14z m70 -26 c16 -40 12
-52 -19 -59 -16 -3 -35 -13 -41 -20 -17 -20 -45 -3 -59 35 -8 23 -7 32 2 35
113 42 105 41 117 9z"/>
<path d="M575 1325 c-16 -7 -23 -14 -15 -15 11 -1 9 -4 -5 -10 -20 -9 -20 -9
0 -9 17 -1 18 -3 5 -12 -16 -11 11 -5 58 12 25 10 21 29 -6 29 -15 0 -15 2 -2
10 22 14 0 11 -35 -5z"/>
<path d="M1379 1374 c34 -43 26 -86 -20 -110 -18 -9 -29 -11 -29 -4 0 6 -4 8
-10 5 -5 -3 -10 -13 -10 -20 0 -12 5 -12 28 -3 35 15 72 54 72 78 0 27 -20 68
-37 74 -9 4 -7 -3 6 -20z"/>
<path d="M2018 1381 c-26 -9 -49 -19 -52 -22 -5 -5 22 -94 52 -171 l11 -26 56
21 c31 11 54 25 52 31 -17 45 -16 52 6 61 23 10 24 25 6 72 -8 22 -14 25 -39
19 -22 -4 -30 -2 -30 9 0 22 -12 23 -62 6z m52 -21 c0 -5 -10 -12 -22 -16 -42
-12 -47 -21 -35 -61 6 -20 19 -38 29 -41 10 -2 18 -9 18 -15 0 -6 10 0 21 12
21 22 23 22 32 5 7 -13 7 -19 -3 -22 -10 -4 -9 -6 1 -14 11 -7 9 -8 -4 -4 -27
9 -73 -4 -55 -15 8 -5 8 -9 2 -9 -17 0 -29 19 -52 85 -21 60 -25 98 -11 89 13
-7 59 7 53 17 -3 5 2 6 10 3 9 -3 16 -10 16 -14z m70 -26 c16 -40 12 -52 -19
-59 -16 -3 -35 -13 -41 -20 -17 -20 -45 -3 -59 35 -8 23 -7 32 2 35 113 42
105 41 117 9z"/>
<path d="M2075 1325 c-16 -7 -23 -14 -15 -15 11 -1 9 -4 -5 -10 -20 -9 -20 -9
0 -9 17 -1 18 -3 5 -12 -12 -9 -12 -10 3 -5 11 3 30 9 43 12 28 7 33 34 7 34
-15 0 -16 2 -3 10 22 14 0 11 -35 -5z"/>
<path d="M2879 1374 c34 -43 26 -86 -20 -110 -18 -9 -29 -11 -29 -4 0 6 -4 8
-10 5 -5 -3 -10 -13 -10 -20 0 -12 5 -12 28 -3 42 18 72 49 72 74 0 31 -19 72
-37 78 -9 4 -7 -3 6 -20z"/>
<path d="M1343 1351 c-3 -11 -9 -18 -14 -15 -5 3 -9 0 -9 -6 0 -6 -4 -8 -10
-5 -5 3 -18 1 -27 -4 -10 -6 -12 -11 -5 -11 6 0 11 -4 10 -9 -2 -5 2 -8 7 -7
6 0 9 4 8 9 -3 7 12 11 35 8 6 -1 12 8 12 20 0 19 2 20 16 8 14 -12 16 -11 13
5 -6 27 -29 32 -36 7z"/>
<path d="M2843 1351 c-3 -11 -9 -18 -14 -15 -5 3 -9 0 -9 -6 0 -6 -4 -8 -10
-5 -5 3 -18 1 -27 -4 -10 -6 -12 -11 -5 -11 6 0 11 -4 10 -9 -2 -5 2 -8 7 -7
6 0 9 4 8 9 -3 7 12 11 35 8 6 -1 12 8 12 20 0 19 2 20 16 8 14 -12 16 -11 13
5 -6 27 -29 32 -36 7z"/>
<path d="M0 1322 c0 -5 6 -9 14 -9 7 0 32 -13 54 -29 35 -24 42 -34 42 -64 0
-19 -5 -42 -10 -50 -8 -13 -11 -12 -24 5 -12 17 -16 17 -31 5 -15 -13 -45 -62
-45 -75 0 -3 11 -5 25 -5 30 0 91 61 100 100 9 41 -19 95 -60 114 -36 17 -65
21 -65 8z m68 -168 c-4 -20 -34 -41 -44 -31 -8 8 24 47 38 47 5 0 8 -7 6 -16z"/>
<path d="M724 1311 c-101 -62 -29 -217 83 -180 36 11 73 58 73 92 0 31 -29 76
-60 92 -38 20 -58 19 -96 -4z m36 -11 c13 -8 12 -11 -5 -24 -27 -20 -35 -20
-35 2 0 31 14 39 40 22z m84 -31 c-8 -13 -30 -11 -43 4 -18 23 8 41 31 21 9
-9 15 -21 12 -25z m-126 -71 c-21 -13 -28 -9 -28 17 0 14 6 25 13 25 9 0 8 3
-2 9 -8 5 -10 14 -6 22 6 9 13 0 22 -26 11 -31 11 -40 1 -47z m80 61 c1 -8
-11 -22 -28 -31 -28 -16 -31 -16 -37 -1 -4 10 3 22 18 34 27 20 43 20 47 -2z
m65 -18 c5 -22 0 -31 -19 -31 -16 0 -25 38 -10 44 20 8 24 6 29 -13z m-65 -53
c-25 -16 -33 -17 -39 -6 -13 19 -12 21 19 39 24 15 28 15 39 1 11 -13 8 -19
-19 -34z m-44 -30 c-8 -13 -31 -9 -43 6 -10 11 -8 16 6 24 13 8 20 6 29 -6 7
-9 10 -20 8 -24z m76 12 c0 -13 -7 -20 -19 -20 -27 0 -35 17 -14 29 26 15 33
13 33 -9z"/>
<path d="M1464 1312 c-33 -21 -69 -85 -60 -108 8 -22 32 -17 55 12 26 33 26
44 1 51 -26 7 -16 22 26 39 33 14 36 13 79 -18 38 -28 44 -38 44 -68 1 -19 -4
-42 -9 -50 -8 -13 -11 -12 -24 5 -14 19 -15 19 -35 1 -11 -10 -23 -27 -26 -37
-8 -23 -28 -25 -45 -4 -14 17 -30 20 -30 5 0 -14 55 -40 84 -40 28 0 83 50 97
88 33 86 -78 173 -157 124z m-4 -65 c0 -8 -9 -22 -19 -31 -26 -23 -39 -2 -15
25 20 22 34 25 34 6z m108 -93 c-4 -20 -34 -41 -44 -31 -8 8 24 47 38 47 5 0
8 -7 6 -16z"/>
<path d="M2224 1311 c-72 -44 -61 -150 18 -179 33 -13 41 -12 75 4 75 37 80
132 9 175 -39 24 -63 24 -102 0z m36 -11 c13 -8 12 -11 -5 -24 -27 -20 -35
-20 -35 2 0 31 14 39 40 22z m84 -31 c-8 -13 -30 -11 -43 4 -18 23 8 41 31 21
9 -9 15 -21 12 -25z m-126 -71 c-21 -13 -28 -9 -28 17 0 14 6 25 13 25 9 0 8
3 -2 9 -8 5 -10 14 -6 22 6 9 13 0 22 -26 11 -31 11 -40 1 -47z m80 61 c1 -8
-11 -22 -28 -31 -28 -16 -31 -16 -37 -1 -4 10 3 22 18 34 27 20 43 20 47 -2z
m62 -8 c0 -5 3 -16 6 -25 4 -11 0 -16 -14 -16 -22 0 -37 36 -18 44 18 7 26 7
26 -3z m-62 -63 c-25 -16 -33 -17 -39 -6 -13 19 -12 21 19 39 24 15 28 15 39
1 11 -13 8 -19 -19 -34z m-44 -30 c-8 -13 -31 -9 -43 6 -10 11 -8 16 6 24 13
8 20 6 29 -6 7 -9 10 -20 8 -24z m76 12 c0 -13 -7 -20 -19 -20 -27 0 -35 17
-14 29 26 15 33 13 33 -9z"/>
<path d="M2964 1311 c-52 -32 -82 -121 -40 -121 15 0 56 45 56 62 0 5 -10 12
-22 17 -23 8 -22 9 9 27 18 11 33 22 33 27 0 10 -1 9 -36 -12z m-4 -64 c0 -8
-9 -22 -19 -31 -26 -23 -39 -2 -15 25 20 22 34 25 34 6z"/>
<path d="M949 1265 c-27 -14 -54 -69 -43 -86 3 -5 1 -9 -5 -9 -6 0 -15 -9 -21
-20 -9 -18 -8 -20 16 -20 23 0 25 2 13 18 -7 9 1 2 19 -15 37 -39 85 -44 125
-13 49 39 42 116 -14 145 -35 18 -56 18 -90 0z m94 -23 c10 -10 14 -22 10 -25
-3 -4 -1 -7 5 -7 16 0 14 -41 -3 -64 -8 -11 -20 -16 -30 -12 -9 3 -13 2 -10
-4 9 -15 -51 -12 -64 3 -6 8 -7 18 -3 22 4 5 2 5 -5 1 -6 -3 -14 -2 -18 4 -3
5 0 10 7 10 9 0 9 3 -2 10 -13 8 -13 13 1 37 8 16 23 27 32 27 9 -1 14 2 11 7
-10 17 53 9 69 -9z"/>
<path d="M1001 1213 c0 -7 -15 -13 -33 -14 l-33 -1 34 -9 c38 -11 45 -8 38 18
-3 10 -5 12 -6 6z"/>
<path d="M2453 1268 c-24 -12 -57 -73 -48 -88 3 -6 2 -10 -4 -10 -6 0 -15 -9
-21 -20 -9 -18 -8 -20 16 -20 23 0 25 2 13 18 -7 9 1 2 19 -15 37 -39 85 -44
125 -13 83 66 -3 195 -100 148z m90 -26 c10 -10 14 -22 10 -25 -3 -4 -1 -7 5
-7 16 0 14 -41 -3 -64 -8 -11 -20 -16 -30 -12 -9 3 -13 2 -10 -4 9 -15 -51
-12 -64 3 -6 8 -7 18 -3 22 4 5 2 5 -5 1 -6 -3 -14 -2 -18 4 -3 5 0 10 7 10 9
0 9 3 -2 10 -13 8 -13 13 1 37 8 16 23 27 32 27 9 -1 14 2 11 7 -10 17 53 9
69 -9z"/>
<path d="M2501 1216 c-1 -14 -7 -17 -31 -14 -40 6 -39 -8 2 -16 37 -7 41 -5
35 26 -3 16 -5 18 -6 4z"/>
<path d="M1125 1245 c-7 -6 -15 -46 -18 -92 -7 -99 -2 -105 80 -101 l58 3 6
85 c4 46 5 90 2 96 -6 15 -112 22 -128 9z m85 -35 c-12 -16 -24 -30 -26 -30
-3 0 -16 12 -30 28 -19 20 -23 22 -15 6 5 -11 17 -26 25 -34 22 -17 20 -26
-11 -68 l-27 -37 27 24 27 24 21 -27 c12 -15 24 -25 27 -22 3 3 -3 15 -14 27
-27 30 -26 73 3 101 l24 22 -3 -79 -3 -80 -49 -3 c-32 -2 -52 1 -57 10 -10 15
-12 152 -2 161 3 4 28 7 55 7 l49 0 -21 -30z"/>
<path d="M2625 1245 c-7 -6 -15 -46 -19 -91 -8 -99 -2 -106 81 -102 l58 3 6
85 c3 47 4 90 2 97 -6 14 -112 21 -128 8z m85 -35 c-12 -16 -24 -30 -26 -30
-3 0 -16 12 -30 28 -19 20 -23 22 -15 6 5 -11 17 -26 25 -34 22 -17 20 -26
-11 -68 l-27 -37 27 24 27 24 21 -27 c12 -15 24 -25 27 -22 3 3 -3 15 -14 27
-27 30 -26 73 3 101 l24 22 -3 -79 -3 -80 -49 -3 c-32 -2 -52 1 -57 10 -10 15
-12 152 -2 161 3 4 28 7 55 7 l49 0 -21 -30z"/>
<path d="M1305 1200 c-17 -19 -17 -23 -3 -53 24 -49 81 -110 142 -152 54 -37
56 -37 81 -21 33 22 32 46 -4 80 -25 24 -32 26 -51 16 -20 -11 -26 -8 -54 19
-26 27 -29 34 -19 51 11 16 9 24 -13 50 -30 35 -54 38 -79 10z m64 -14 c16
-17 20 -30 15 -49 -9 -39 44 -91 84 -82 22 4 33 0 52 -20 22 -23 23 -27 8 -42
-10 -10 -25 -13 -40 -10 -33 9 -121 89 -157 144 -29 44 -30 48 -14 65 21 23
25 23 52 -6z"/>
<path d="M2805 1200 c-16 -17 -16 -23 -4 -52 15 -38 120 -144 167 -171 47 -27
39 -6 -9 23 -45 27 -122 108 -144 151 -13 24 -12 28 5 44 20 18 21 17 45 -5
20 -19 24 -30 20 -52 -5 -22 -1 -34 24 -59 26 -25 37 -30 59 -24 31 8 38 13
30 21 -4 3 -16 0 -28 -6 -18 -10 -25 -8 -42 7 -31 28 -41 52 -28 68 8 10 4 20
-16 44 -30 36 -53 39 -79 11z"/>
<path d="M632 1163 c5 -25 28 -28 28 -4 0 12 -6 21 -16 21 -9 0 -14 -7 -12
-17z"/>
<path d="M2132 1163 c5 -25 28 -28 28 -4 0 12 -6 21 -16 21 -9 0 -14 -7 -12
-17z"/>
<path d="M2940 1140 c0 -5 14 -16 30 -25 35 -18 39 -11 8 16 -26 21 -38 24
-38 9z"/>
<path d="M110 1124 c0 -9 7 -14 17 -12 25 5 28 28 4 28 -12 0 -21 -6 -21 -16z"/>
<path d="M520 1106 c0 -22 -2 -23 -42 -15 -75 14 -97 11 -102 -13 -2 -13 -9
-45 -14 -73 -6 -27 -9 -51 -7 -53 5 -5 194 -32 225 -32 24 0 25 3 26 56 1 41
6 59 18 66 10 5 16 22 16 42 0 31 -3 34 -37 40 -70 11 -83 8 -83 -18z m35 3
c-14 -6 -4 -7 28 -3 l49 7 -4 -29 c-3 -28 -4 -29 -60 -28 -31 1 -61 5 -67 8
-16 11 -30 -1 -46 -41 -21 -49 -20 -50 23 -55 44 -6 52 3 46 51 -2 20 -1 30 2
23 4 -9 10 -10 18 -3 7 6 21 8 33 5 18 -5 20 -11 15 -52 -2 -26 -5 -48 -6 -49
-1 -1 -47 4 -101 12 -55 8 -103 15 -106 15 -3 0 -2 21 2 48 4 26 8 53 8 60 1
12 20 11 114 -3 23 -4 27 -1 27 20 0 19 5 25 23 24 21 0 21 -1 2 -10z m-45
-75 c0 -17 -26 -19 -36 -3 -7 12 15 31 28 23 4 -3 8 -12 8 -20z m0 -39 c0 -10
-10 -15 -30 -15 -22 0 -28 4 -24 15 4 8 17 15 30 15 15 0 24 -6 24 -15z"/>
<path d="M2020 1109 c0 -20 -3 -21 -70 -14 -67 7 -69 6 -74 -17 -2 -12 -9 -45
-14 -73 -6 -27 -9 -51 -7 -53 5 -5 194 -32 225 -32 24 0 25 3 26 56 1 41 6 59
18 66 10 5 16 22 16 42 0 31 -3 34 -37 40 -67 11 -83 8 -83 -15z m40 1 c-11
-7 -2 -8 28 -4 43 7 44 7 40 -22 -3 -28 -4 -29 -60 -28 -31 1 -61 5 -67 8 -16
11 -30 -1 -46 -41 -21 -49 -20 -50 23 -55 44 -6 52 3 46 51 -2 20 -1 30 2 23
4 -9 10 -10 18 -3 7 6 21 8 33 5 18 -5 20 -11 15 -52 -2 -26 -5 -48 -6 -49 -1
-1 -47 4 -101 12 -55 8 -103 15 -106 15 -3 0 -2 21 2 48 4 26 8 53 8 60 1 12
20 11 114 -3 23 -4 27 -1 27 20 0 19 5 25 23 25 18 0 19 -2 7 -10z m-50 -76
c0 -17 -26 -19 -36 -3 -7 12 15 31 28 23 4 -3 8 -12 8 -20z m0 -39 c0 -10 -10
-15 -30 -15 -22 0 -28 4 -24 15 4 8 17 15 30 15 15 0 24 -6 24 -15z"/>
<path d="M120 1091 c-21 -6 -25 -14 -28 -46 -1 -22 1 -60 6 -85 6 -36 12 -46
30 -48 16 -2 22 -10 22 -28 0 -13 5 -24 11 -24 6 0 8 7 5 16 -3 9 -6 22 -6 29
0 8 -10 15 -22 17 -20 3 -24 11 -31 72 -5 38 -5 72 0 76 4 5 38 11 74 15 63 7
66 6 72 -16 3 -12 -1 -35 -9 -50 -16 -32 -19 -73 -4 -64 6 4 8 10 5 15 -7 11
23 85 31 77 3 -3 -2 -20 -11 -37 -11 -22 -13 -36 -7 -42 17 -17 2 -38 -28 -38
-25 0 -69 -34 -58 -45 3 -3 13 4 23 15 10 11 28 20 40 20 30 0 47 23 40 53 -4
15 0 38 10 57 14 26 14 34 4 41 -7 4 -16 6 -20 3 -4 -2 -9 3 -13 11 -6 16 -87
20 -136 6z"/>
<path d="M1620 1091 c-21 -6 -25 -14 -28 -46 -1 -22 1 -60 6 -85 6 -36 12 -46
30 -48 16 -2 22 -10 22 -28 0 -13 5 -24 11 -24 6 0 8 7 5 16 -3 9 -6 22 -6 29
0 8 -10 15 -22 17 -20 3 -24 11 -31 72 -5 38 -5 72 0 76 4 5 38 11 74 15 62 7
67 6 74 -13 3 -12 -1 -34 -9 -51 -18 -34 -21 -75 -6 -66 6 4 8 10 5 15 -7 11
23 85 31 77 3 -3 -2 -19 -11 -37 -11 -22 -13 -35 -6 -44 14 -16 -5 -36 -34
-36 -22 0 -63 -35 -53 -45 3 -3 13 4 23 15 10 11 28 20 40 20 30 0 47 23 40
53 -4 15 0 38 10 57 14 26 14 34 4 41 -7 4 -16 6 -20 3 -4 -2 -9 3 -13 11 -6
16 -87 20 -136 6z"/>
<path d="M738 1083 c-27 -3 -38 -9 -39 -21 0 -9 -2 -32 -3 -49 -1 -18 2 -33 7
-33 5 0 4 -7 -3 -15 -10 -12 -10 -15 1 -15 11 0 11 -2 -1 -10 -9 -6 -10 -10
-3 -10 7 0 10 -15 9 -40 -2 -22 1 -40 6 -40 4 0 8 -7 8 -16 0 -15 11 -16 93
-10 50 4 95 10 98 14 4 4 2 62 -4 130 l-10 122 -61 -2 c-34 -1 -78 -3 -98 -5z
m145 -10 c3 -5 8 -58 12 -120 l7 -111 -67 -4 c-37 -1 -68 -1 -70 2 -2 3 -6 55
-10 117 l-7 112 38 4 c72 7 93 7 97 0z m-150 -10 c3 -5 8 -59 12 -120 5 -87 4
-113 -5 -113 -7 0 -10 8 -7 20 3 11 0 20 -6 20 -7 0 -5 5 3 10 8 5 10 10 5 10
-7 0 -11 21 -10 50 1 28 -3 50 -8 50 -5 0 -4 7 3 15 10 12 10 15 -1 15 -11 0
-11 2 1 10 10 6 11 10 3 10 -7 0 -13 7 -13 15 0 16 15 21 23 8z"/>
<path d="M807 1013 c-23 -6 -39 -47 -31 -79 6 -24 41 -41 66 -31 7 3 1 6 -14
6 -36 1 -54 34 -39 68 9 19 18 24 39 21 21 -2 28 -9 30 -30 2 -16 -1 -28 -7
-28 -6 0 -10 10 -8 23 1 16 -3 22 -18 22 -16 0 -20 -7 -20 -30 0 -25 4 -30 25
-30 51 0 67 38 30 75 -21 21 -22 21 -53 13z"/>
<path d="M2238 1083 c-27 -3 -38 -9 -39 -21 0 -9 -2 -32 -3 -49 -1 -18 2 -33
7 -33 5 0 4 -7 -3 -15 -10 -12 -10 -15 1 -15 11 0 11 -2 -1 -10 -9 -6 -10 -10
-3 -10 7 0 10 -15 9 -40 -2 -22 1 -40 6 -40 4 0 8 -7 8 -16 0 -15 11 -16 93
-10 50 4 95 10 98 14 4 4 2 62 -4 130 l-10 122 -61 -2 c-34 -1 -78 -3 -98 -5z
m145 -10 c3 -5 8 -58 12 -120 l7 -111 -63 -4 c-35 -2 -67 -2 -71 1 -3 4 -10
56 -13 118 l-7 112 38 4 c72 7 93 7 97 0z m-150 -10 c3 -5 8 -59 12 -120 5
-87 4 -113 -5 -113 -7 0 -10 8 -7 20 3 11 0 20 -6 20 -7 0 -5 5 3 10 8 5 10
10 5 10 -7 0 -11 21 -10 50 1 28 -3 50 -8 50 -5 0 -4 7 3 15 10 12 10 15 -1
15 -11 0 -11 2 1 10 10 6 11 10 3 10 -7 0 -13 7 -13 15 0 16 15 21 23 8z"/>
<path d="M2302 1013 c-23 -9 -34 -54 -21 -85 9 -23 17 -28 43 -27 30 2 30 2 3
6 -35 6 -53 37 -38 69 19 43 90 20 74 -23 -8 -22 -23 -14 -20 10 1 16 -3 22
-18 22 -16 0 -20 -7 -20 -30 0 -26 4 -30 28 -30 46 -1 61 41 27 75 -20 20 -33
23 -58 13z"/>
<path d="M0 1065 c0 -5 10 -20 23 -33 l22 -24 -24 -19 c-29 -24 -23 -35 7 -13
29 20 28 45 -3 74 -14 13 -25 20 -25 15z"/>
<path d="M314 1049 c-10 -17 13 -36 27 -22 12 12 4 33 -11 33 -5 0 -12 -5 -16
-11z"/>
<path d="M954 1024 c-4 -24 -3 -39 5 -44 8 -4 11 -25 9 -56 l-3 -48 49 -9 c62
-10 76 -5 75 30 -1 26 -2 24 -15 -16 -2 -8 -7 -12 -10 -9 -2 3 0 17 5 31 7 17
7 28 1 32 -6 4 -10 15 -10 26 0 15 -6 19 -22 17 -19 -2 -24 2 -26 25 -3 28 4
32 45 21 18 -5 21 -11 16 -40 -4 -25 -1 -40 12 -54 20 -22 35 -18 35 11 0 11
-4 17 -10 14 -6 -3 -9 9 -7 31 2 36 1 38 -38 46 -22 5 -44 13 -49 18 -6 6 -20
10 -33 10 -18 0 -23 -7 -29 -36z m56 16 c0 -5 -7 -7 -16 -3 -14 5 -15 3 -5
-15 6 -11 11 -25 11 -31 0 -14 -27 -14 -35 -1 -3 6 1 7 9 4 18 -7 20 4 6 26
-8 12 -10 12 -10 1 0 -8 -2 -12 -5 -9 -3 3 -3 13 1 22 7 17 44 23 44 6z m7
-109 c14 -6 28 -9 31 -6 3 3 0 5 -6 5 -7 0 -12 9 -12 20 0 11 4 20 9 20 11 0
21 -52 15 -77 -5 -19 -9 -19 -45 -10 -29 7 -39 14 -35 24 4 8 7 27 7 41 1 15
3 20 6 11 2 -9 16 -22 30 -28z"/>
<path d="M1814 1049 c-10 -17 13 -36 27 -22 12 12 4 33 -11 33 -5 0 -12 -5
-16 -11z"/>
<path d="M2454 1024 c-4 -24 -3 -39 5 -44 8 -4 11 -25 9 -56 l-3 -48 49 -9
c61 -10 76 -5 76 29 0 19 4 25 15 20 11 -4 15 2 15 20 0 14 -4 22 -10 19 -6
-3 -9 9 -7 31 2 36 1 38 -38 46 -22 5 -44 13 -49 18 -6 6 -20 10 -33 10 -18 0
-23 -7 -29 -36z m56 16 c0 -5 15 -12 34 -15 33 -7 34 -8 29 -45 -3 -20 -1 -40
4 -43 12 -7 4 -67 -8 -67 -11 0 -11 3 1 34 6 16 6 27 0 31 -6 4 -10 15 -10 26
0 15 -6 19 -22 17 -18 -2 -24 3 -28 26 -3 16 -11 31 -18 34 -11 3 -12 0 -3
-16 6 -11 11 -25 11 -31 0 -14 -27 -14 -35 -1 -3 6 1 7 9 4 18 -7 20 4 6 26
-8 12 -10 12 -10 1 0 -8 -2 -12 -5 -9 -3 3 -3 13 1 22 6 17 44 23 44 6z m7
-109 c14 -6 28 -9 31 -6 3 3 0 5 -6 5 -7 0 -12 9 -12 20 0 11 4 20 9 20 11 0
21 -52 15 -77 -5 -19 -9 -19 -45 -10 -29 7 -39 14 -35 24 4 8 7 27 7 41 1 15
3 20 6 11 2 -9 16 -22 30 -28z"/>
<path d="M2664 977 c-20 -11 -20 -143 0 -154 8 -4 16 -19 18 -32 l3 -24 30 25
c27 22 37 24 90 20 79 -5 87 4 83 95 l-3 68 -103 5 c-57 3 -110 1 -118 -3z
m214 -71 c2 -32 -2 -64 -7 -69 -6 -6 -38 -9 -72 -8 -52 2 -65 -1 -87 -21 -19
-18 -24 -19 -19 -6 4 12 0 21 -13 28 -16 9 -20 21 -20 69 0 32 3 61 7 65 4 4
52 5 107 4 l101 -3 3 -59z"/>
<path d="M2705 930 c3 -5 36 -9 73 -9 62 1 64 2 27 10 -57 11 -107 11 -100 -1z"/>
<path d="M2700 870 c0 -5 24 -10 53 -9 38 0 47 3 32 9 -28 12 -85 12 -85 0z"/>
<path d="M1157 974 c-4 -4 -7 -38 -7 -76 0 -52 4 -70 15 -74 8 -4 15 -14 15
-24 0 -29 15 -31 39 -6 20 21 29 23 84 19 81 -7 89 2 85 94 l-3 68 -111 3
c-60 1 -113 -1 -117 -4z m207 -10 c20 -8 23 -118 4 -130 -6 -4 -38 -6 -71 -5
-50 2 -63 -1 -85 -21 -19 -18 -24 -19 -19 -6 4 12 0 21 -13 28 -16 9 -20 21
-20 69 0 32 3 61 7 64 8 9 176 9 197 1z"/>
<path d="M1205 930 c3 -5 36 -9 73 -9 52 1 60 3 37 9 -46 12 -117 12 -110 0z"/>
<path d="M1200 870 c0 -5 24 -10 53 -9 38 0 47 3 32 9 -28 12 -85 12 -85 0z"/>
<path d="M40 940 c0 -15 5 -20 18 -18 9 2 17 10 17 18 0 8 -8 16 -17 18 -13 2
-18 -3 -18 -18z"/>
<path d="M1540 940 c0 -15 5 -20 18 -18 9 2 17 10 17 18 0 8 -8 16 -17 18 -13
2 -18 -3 -18 -18z"/>
<path d="M637 943 c-4 -3 -7 -14 -7 -24 0 -12 6 -16 20 -12 11 3 20 9 20 13 0
12 -26 30 -33 23z"/>
<path d="M2137 943 c-4 -3 -7 -14 -7 -24 0 -12 6 -16 20 -12 11 3 20 9 20 13
0 12 -26 30 -33 23z"/>
<path d="M1422 932 c-9 -7 -8 -13 8 -27 11 -10 20 -13 20 -7 0 6 3 17 6 26 7
17 -12 21 -34 8z"/>
<path d="M2922 932 c-9 -7 -8 -13 8 -27 11 -10 20 -13 20 -7 0 6 3 17 6 26 7
17 -12 21 -34 8z"/>
<path d="M390 900 c0 -11 7 -20 15 -20 8 0 15 9 15 20 0 11 -7 20 -15 20 -8 0
-15 -9 -15 -20z"/>
<path d="M1890 900 c0 -11 7 -20 15 -20 8 0 15 9 15 20 0 11 -7 20 -15 20 -8
0 -15 -9 -15 -20z"/>
<path d="M18 892 c-31 -6 -19 -18 15 -14 44 5 80 -32 75 -79 -2 -26 -14 -41
-55 -74 -63 -49 -70 -68 -8 -24 64 46 79 66 79 104 0 56 -52 98 -106 87z"/>
<path d="M223 876 c-56 -49 -25 -158 48 -164 20 -2 42 4 54 13 20 17 20 17 0
10 -65 -23 -88 -15 -111 42 -23 54 14 113 70 113 16 0 54 -40 56 -60 8 -58
-25 -72 -36 -14 -7 39 -26 53 -49 34 -20 -16 -19 -74 0 -90 16 -13 25 -11 85
20 22 11 16 67 -11 96 -29 31 -70 31 -106 0z m72 -74 c5 -25 3 -33 -10 -38
-30 -12 -49 48 -23 74 15 15 24 6 33 -36z"/>
<path d="M1502 885 c-43 -19 -52 -42 -51 -132 1 -124 2 -125 91 -55 78 62 95
91 79 134 -19 51 -70 73 -119 53z m89 -26 c14 -14 19 -30 17 -57 -3 -31 -12
-44 -68 -89 l-65 -52 -7 42 c-14 87 -10 126 17 152 30 31 77 33 106 4z"/>
<path d="M1500 840 c-24 -24 -25 -38 -4 -68 18 -27 55 -29 77 -4 23 26 21 58
-5 76 -30 21 -44 20 -68 -4z m70 -15 c16 -19 4 -52 -22 -61 -30 -9 -62 29 -48
57 13 22 52 25 70 4z"/>
<path d="M1723 876 c-56 -49 -25 -158 48 -164 20 -2 42 4 54 13 20 17 20 17 0
10 -65 -24 -88 -15 -112 44 -18 43 -3 84 38 101 24 10 33 10 54 -4 29 -19 47
-58 39 -81 -11 -27 -33 -16 -40 21 -12 62 -64 53 -64 -11 0 -42 24 -64 51 -47
10 7 27 12 38 12 39 0 38 64 -2 108 -27 29 -69 28 -104 -2z m72 -74 c5 -25 3
-33 -10 -38 -30 -12 -49 48 -23 74 15 15 24 6 33 -36z"/>
<path d="M512 874 c-8 -14 -12 -14 -32 -3 -18 11 -24 11 -27 2 -3 -7 -16 -13
-30 -13 l-26 0 7 -77 c3 -42 6 -96 6 -120 l0 -43 63 0 c34 0 92 3 130 7 l67 6
0 72 c0 40 -3 93 -6 119 -6 40 -10 46 -30 46 -13 0 -24 5 -24 10 0 14 -27 12
-33 -2 -3 -10 -9 -10 -26 0 -26 15 -28 15 -39 -4z m64 -25 c3 -5 13 -9 22 -9
15 0 15 2 2 10 -11 7 -7 10 18 10 20 0 32 -5 32 -14 0 -9 -21 -15 -67 -19
-101 -10 -173 -8 -173 3 0 16 33 26 38 12 2 -7 11 -12 20 -12 15 0 15 2 2 10
-12 8 -9 10 12 10 15 0 30 -4 33 -10 12 -19 26 -11 16 9 -9 16 -7 17 15 13 13
-2 27 -8 30 -13z m78 -81 c3 -29 6 -69 6 -89 l0 -36 -112 -6 c-61 -3 -115 -4
-120 -1 -4 3 -8 43 -8 89 l0 84 98 4 c53 1 104 4 113 5 12 2 18 -10 23 -50z"/>
<path d="M2012 874 c-8 -14 -12 -14 -32 -3 -18 11 -24 11 -27 2 -3 -7 -16 -13
-30 -13 l-26 0 7 -77 c3 -42 6 -96 6 -120 l0 -43 63 0 c34 0 92 3 130 7 l67 6
0 72 c0 40 -3 93 -6 119 -6 40 -10 46 -30 46 -13 0 -24 5 -24 10 0 14 -27 12
-33 -2 -3 -10 -9 -10 -26 0 -26 15 -28 15 -39 -4z m63 -25 c5 -5 16 -9 25 -9
13 0 13 1 0 10 -11 7 -7 10 18 10 20 0 32 -5 32 -14 0 -9 -21 -15 -67 -19
-101 -10 -173 -8 -173 3 0 16 33 26 38 12 2 -7 11 -12 20 -12 15 0 15 2 2 10
-12 8 -10 10 11 10 14 0 30 -5 37 -12 9 -9 15 -9 25 1 7 9 7 11 1 8 -7 -4 -15
0 -18 9 -5 12 -1 14 17 9 12 -4 26 -11 32 -16z m79 -81 c3 -29 6 -70 6 -90 l0
-38 -67 0 c-38 0 -92 -3 -120 -6 l-53 -7 0 91 0 91 98 4 c53 1 104 4 113 5 12
2 18 -10 23 -50z"/>
<path d="M2971 864 c-17 -22 -21 -40 -21 -103 0 -102 6 -124 31 -110 10 5 19
15 19 21 0 7 -4 7 -14 -1 -11 -9 -14 -1 -20 41 -10 87 -7 114 15 142 12 15 19
29 16 32 -2 3 -14 -7 -26 -22z"/>
<path d="M13 853 c-24 -9 -13 -20 15 -15 34 4 56 -18 47 -47 -8 -26 -42 -36
-62 -19 -14 11 -15 11 -11 -2 7 -22 47 -24 69 -4 44 40 -2 110 -58 87z"/>
<path d="M1040 811 c-30 -10 -54 -23 -53 -29 1 -6 -11 -14 -28 -17 -17 -4 -33
-13 -35 -20 -3 -7 4 -47 15 -87 25 -89 26 -98 6 -98 -17 0 -20 -16 -5 -25 5
-3 46 4 90 15 57 16 81 27 85 41 4 10 14 19 24 19 33 0 43 24 31 72 -44 167
-36 158 -130 129z m90 -33 c6 -24 18 -65 26 -92 8 -27 13 -51 11 -52 -1 -1
-14 -5 -29 -9 -25 -6 -28 -4 -42 45 -8 28 -18 67 -22 86 -9 50 13 43 26 -8 23
-87 33 -118 38 -113 7 6 -28 137 -41 153 -5 7 -17 10 -26 8 -51 -15 -67 -13
-21 4 30 10 58 19 62 19 4 1 12 -18 18 -41z m-52 -85 c28 -113 28 -115 -5
-107 -16 3 -23 2 -16 -3 6 -5 -8 -9 -36 -9 l-48 -2 -17 68 c-27 104 -28 101
34 121 30 10 57 18 60 18 3 1 15 -38 28 -86z"/>
<path d="M1005 730 c-3 -6 6 -15 20 -20 36 -14 37 -13 25 10 -11 21 -35 27
-45 10z"/>
<path d="M1025 691 c16 -7 13 -9 -20 -16 l-40 -8 40 -14 40 -13 -40 4 c-22 3
-31 2 -21 -1 15 -4 16 -7 5 -14 -12 -7 -12 -9 1 -9 13 0 13 -1 0 -10 -11 -7
-11 -10 -2 -10 7 0 11 -4 7 -9 -3 -6 7 -6 27 0 18 5 35 9 38 9 3 0 -2 5 -10
10 -12 8 -12 10 5 11 20 0 20 0 0 9 -20 9 -20 9 0 10 20 1 20 1 0 10 -20 9
-20 9 0 10 20 1 20 1 0 10 -13 6 -15 9 -5 9 13 1 13 2 0 11 -8 5 -22 9 -30 9
-10 0 -8 -3 5 -8z"/>
<path d="M2540 811 c-30 -10 -54 -23 -53 -29 1 -6 -11 -14 -28 -17 -17 -4 -33
-13 -35 -20 -3 -7 4 -47 15 -87 25 -89 26 -98 6 -98 -17 0 -20 -16 -5 -25 5
-3 46 4 90 15 57 16 81 27 85 41 4 10 14 19 24 19 33 0 43 24 31 72 -44 167
-36 158 -130 129z m90 -33 c6 -24 18 -65 26 -92 8 -27 13 -51 11 -52 -1 -1
-14 -5 -29 -9 -25 -6 -28 -4 -42 45 -8 28 -18 67 -22 86 -9 50 13 43 26 -8 23
-87 33 -118 38 -113 7 7 -29 138 -42 152 -9 10 -21 10 -46 3 -62 -18 -67 -9
-5 10 33 10 63 19 67 19 4 1 12 -18 18 -41z m-52 -85 c28 -113 28 -115 -5
-107 -16 3 -23 2 -16 -3 6 -5 -8 -9 -36 -9 l-48 -2 -17 68 c-27 104 -28 101
34 121 30 10 57 18 60 18 3 1 15 -38 28 -86z"/>
<path d="M2505 730 c-3 -6 6 -15 20 -20 36 -14 37 -13 25 10 -11 21 -35 27
-45 10z"/>
<path d="M2525 691 c16 -7 13 -9 -20 -16 l-40 -8 40 -14 40 -13 -40 4 c-22 3
-31 2 -21 -1 15 -4 16 -7 5 -14 -12 -7 -12 -9 1 -9 13 0 13 -1 0 -10 -11 -7
-11 -10 -2 -10 7 0 11 -4 7 -9 -3 -6 7 -6 27 0 18 5 35 9 38 9 3 0 -2 5 -10
10 -12 8 -12 10 5 11 20 0 20 0 0 9 -20 9 -20 9 0 10 20 1 20 1 0 10 -20 9
-20 9 0 10 20 1 20 1 0 10 -13 6 -15 9 -5 9 13 1 13 2 0 11 -8 5 -22 9 -30 9
-10 0 -8 -3 5 -8z"/>
<path d="M864 799 c-10 -17 13 -36 27 -22 12 12 4 33 -11 33 -5 0 -12 -5 -16
-11z"/>
<path d="M1383 794 c-8 -21 13 -42 28 -27 13 13 5 43 -11 43 -6 0 -13 -7 -17
-16z"/>
<path d="M2364 799 c-10 -17 13 -36 27 -22 12 12 4 33 -11 33 -5 0 -12 -5 -16
-11z"/>
<path d="M2883 794 c-8 -21 13 -42 28 -27 13 13 5 43 -11 43 -6 0 -13 -7 -17
-16z"/>
<path d="M753 775 c-91 -39 -59 -185 42 -185 51 0 95 44 95 95 0 49 -15 74
-55 91 -41 17 -42 17 -82 -1z m91 -26 c23 -18 27 -28 24 -63 -2 -28 -7 -40
-17 -38 -8 2 -11 -3 -8 -12 6 -16 -12 -26 -49 -26 -38 0 -61 16 -73 50 -12 36
2 86 21 74 6 -4 8 -3 4 4 -8 13 21 31 50 32 12 0 33 -10 48 -21z"/>
<path d="M783 718 c2 -32 6 -38 24 -38 12 0 25 5 28 10 3 6 -2 10 -12 10 -12
0 -24 11 -30 28 -11 27 -11 26 -10 -10z"/>
<path d="M2253 775 c-91 -39 -59 -185 42 -185 51 0 95 44 95 95 0 49 -15 74
-55 91 -41 17 -42 17 -82 -1z m89 -25 c14 -11 28 -30 30 -43 6 -32 -9 -70 -24
-61 -7 5 -9 2 -5 -9 6 -17 -11 -27 -49 -27 -38 0 -61 16 -73 50 -12 36 2 86
21 74 6 -4 8 -3 4 4 -8 13 21 31 50 32 12 0 33 -9 46 -20z"/>
<path d="M2283 718 c2 -32 6 -38 24 -38 12 0 25 5 29 12 5 8 0 9 -14 6 -16 -5
-22 -2 -22 10 0 10 -5 24 -10 32 -7 11 -9 5 -7 -22z"/>
<path d="M1211 634 c-23 -75 -40 -138 -38 -140 12 -13 149 -46 156 -38 10 10
81 240 81 260 0 11 -116 54 -147 54 -5 0 -28 -61 -52 -136z m127 81 c61 -20
60 -7 16 -153 -19 -63 -29 -82 -40 -78 -8 3 -40 13 -70 22 -37 10 -54 20 -51
29 3 7 15 45 27 86 32 106 38 119 52 115 7 -3 37 -12 66 -21z"/>
<path d="M1272 668 c-7 -7 -12 -18 -12 -25 0 -7 -9 -22 -20 -33 -35 -35 -26
-57 31 -70 58 -14 68 -8 69 45 0 17 0 41 0 54 1 37 -42 55 -68 29z m46 -7 c21
-13 10 -46 -16 -49 -27 -4 -40 22 -22 43 14 17 20 18 38 6z m-13 -66 c21 -2
30 -22 17 -42 -9 -14 -92 5 -92 22 0 19 24 36 40 29 8 -4 24 -7 35 -9z"/>
<path d="M2711 634 c-23 -75 -40 -138 -38 -140 12 -13 149 -46 156 -38 10 10
81 240 81 260 0 11 -116 54 -147 54 -5 0 -28 -61 -52 -136z m127 81 c61 -20
60 -7 16 -153 -16 -52 -30 -82 -37 -79 -7 2 -38 13 -70 23 -35 11 -56 22 -53
30 2 6 14 44 26 85 32 106 38 119 52 115 7 -3 37 -12 66 -21z"/>
<path d="M2772 668 c-7 -7 -12 -18 -12 -25 0 -7 -9 -22 -20 -33 -35 -35 -26
-57 31 -70 58 -14 68 -8 69 45 0 17 0 41 0 54 1 37 -42 55 -68 29z m46 -7 c21
-13 10 -46 -16 -49 -27 -4 -40 22 -22 43 14 17 20 18 38 6z m-13 -66 c21 -2
30 -22 17 -42 -9 -14 -92 5 -92 22 0 19 24 36 40 29 8 -4 24 -7 35 -9z"/>
<path d="M95 685 c-14 -13 -25 -36 -25 -50 0 -28 31 -65 55 -65 9 0 15 -9 15
-21 0 -22 53 -79 74 -79 6 0 36 36 65 80 53 77 54 81 35 95 -24 19 -56 28 -85
23 -14 -2 -32 6 -46 20 -29 29 -58 28 -88 -3z m89 -16 c19 -28 3 -77 -29 -85
-52 -13 -89 38 -61 81 21 32 69 34 90 4z m106 -27 l23 -18 -48 -72 c-47 -71
-47 -71 -72 -55 -14 9 -29 28 -34 41 -8 20 -6 27 12 40 12 8 27 30 35 48 17
39 48 45 84 16z"/>
<path d="M1595 685 c-14 -13 -25 -36 -25 -50 0 -28 31 -65 55 -65 8 0 15 -9
15 -21 0 -21 56 -79 76 -79 6 0 35 36 64 80 51 77 52 81 34 95 -24 19 -56 28
-85 23 -14 -2 -32 6 -46 20 -29 29 -58 28 -88 -3z m83 -7 c18 -18 14 -63 -8
-83 -45 -41 -110 18 -76 70 18 27 63 34 84 13z m112 -36 l23 -18 -48 -72 c-47
-71 -47 -71 -72 -55 -14 9 -29 28 -34 41 -8 20 -6 27 12 40 12 8 27 30 35 48
17 39 48 45 84 16z"/>
<path d="M351 636 c-12 -14 -5 -26 16 -26 15 0 18 26 4 34 -5 3 -14 0 -20 -8z"/>
<path d="M1851 637 c-12 -15 -5 -27 16 -27 7 0 13 9 13 20 0 23 -13 26 -29 7z"/>
<path d="M4 598 c-5 -8 -2 -9 9 -5 13 5 22 -4 37 -32 21 -42 17 -52 -27 -65
-22 -7 -22 -8 -7 -38 14 -28 14 -31 -3 -44 -20 -15 -6 -19 16 -5 12 8 13 14 3
36 -18 38 -15 48 12 43 34 -7 38 24 12 80 -20 42 -38 53 -52 30z"/>
<path d="M1467 584 c-49 -26 -51 -30 -32 -76 5 -12 -2 -21 -24 -33 -17 -8 -31
-18 -31 -21 0 -10 40 -83 49 -88 5 -4 12 -2 16 4 3 5 2 10 -4 10 -11 0 -41 51
-41 69 0 19 40 34 55 21 10 -8 19 -8 33 -1 16 8 21 6 31 -15 14 -32 16 -30
-19 -44 -37 -15 -66 -60 -40 -60 6 0 10 7 10 15 0 9 16 23 35 32 34 16 46 45
25 58 -5 3 -10 13 -10 22 0 11 7 14 24 11 20 -4 26 0 28 16 4 25 -32 106 -46
106 -6 -1 -33 -12 -59 -26z m83 -23 c22 -43 21 -45 -43 -74 l-37 -17 -20 33
c-11 17 -20 35 -20 39 0 6 83 55 97 58 2 0 12 -18 23 -39z"/>
<path d="M453 585 c-8 -13 -14 -14 -37 -5 -15 5 -32 8 -37 5 -14 -9 -31 -85
-23 -104 4 -9 6 -22 5 -28 -2 -15 21 -17 35 -3 6 6 25 5 53 -2 32 -8 48 -8 62
0 15 9 19 8 24 -8 7 -23 25 -27 25 -6 0 8 7 16 16 18 18 3 46 79 35 96 -3 6
-33 18 -66 27 -33 10 -65 20 -72 22 -6 2 -15 -3 -20 -12z m89 -21 c32 -9 58
-22 58 -29 0 -27 -23 -75 -36 -75 -8 0 -14 -6 -14 -12 0 -8 -4 -7 -10 3 -5 9
-30 22 -55 29 -25 7 -45 15 -45 19 0 24 23 81 32 81 7 0 38 -7 70 -16z m-107
-39 c0 -36 3 -41 33 -50 17 -5 32 -13 32 -18 0 -6 -14 -6 -32 -2 -18 4 -44 8
-58 9 -37 1 -49 22 -37 68 8 34 13 39 36 36 23 -3 26 -7 26 -43z"/>
<path d="M465 513 c13 -12 95 -36 102 -29 3 2 -14 10 -37 16 -23 6 -49 14 -58
17 -11 4 -14 3 -7 -4z"/>
<path d="M650 585 c-15 -18 -13 -20 19 -30 20 -6 23 -4 18 10 -4 9 -7 21 -7
26 0 14 -16 11 -30 -6z"/>
<path d="M1953 585 c-8 -13 -14 -14 -37 -5 -36 13 -43 8 -57 -43 -8 -31 -8
-46 0 -60 7 -10 9 -22 6 -27 -8 -13 18 -13 31 0 7 7 25 6 56 -4 40 -12 48 -12
61 1 13 14 16 13 22 -6 7 -24 25 -29 25 -7 0 8 7 16 16 18 18 3 46 79 35 96
-3 6 -33 18 -66 27 -33 10 -65 20 -72 22 -6 2 -15 -3 -20 -12z m89 -21 c32 -9
58 -22 58 -29 0 -27 -23 -75 -36 -75 -8 0 -14 -6 -14 -12 0 -8 -4 -7 -10 3 -5
9 -30 22 -55 29 -25 7 -45 15 -45 19 0 24 23 81 32 81 7 0 38 -7 70 -16z
m-107 -39 c0 -36 3 -41 33 -50 17 -5 32 -13 32 -18 0 -6 -14 -6 -32 -2 -18 4
-44 8 -58 9 -37 1 -49 22 -37 68 8 34 13 39 36 36 23 -3 26 -7 26 -43z"/>
<path d="M1965 513 c13 -12 95 -36 102 -29 3 2 -14 10 -37 16 -23 6 -49 14
-58 17 -11 4 -14 3 -7 -4z"/>
<path d="M2150 585 c-15 -18 -13 -20 19 -30 20 -6 23 -4 18 10 -4 9 -7 21 -7
26 0 14 -16 11 -30 -6z"/>
<path d="M2957 579 c-39 -20 -41 -26 -22 -71 5 -12 -2 -21 -24 -33 -17 -8 -31
-18 -31 -21 0 -10 40 -83 49 -88 5 -4 12 -2 16 4 3 5 2 10 -4 10 -11 0 -41 51
-41 69 0 19 40 34 55 21 11 -9 18 -9 32 0 17 11 17 11 0 6 -12 -4 -23 4 -37
27 -26 42 -26 45 15 64 19 9 35 20 35 25 0 10 2 11 -43 -13z"/>
<path d="M781 553 c-40 -14 -69 -28 -63 -32 6 -4 2 -27 -13 -64 l-24 -58 22
-8 c12 -5 51 -20 86 -35 36 -14 68 -26 72 -26 4 0 15 21 25 46 10 25 24 52 32
60 12 12 8 23 -23 79 -20 36 -37 65 -38 64 -1 0 -35 -12 -76 -26z m101 -42
l28 -48 -27 -61 c-22 -53 -28 -60 -44 -52 -16 9 -17 13 -3 45 l14 35 -36 15
c-49 20 -51 20 -64 -19 -8 -27 -15 -33 -30 -29 -25 7 -25 5 2 74 20 52 26 58
68 72 64 21 62 22 92 -32z m-52 -93 c0 -3 -4 -18 -10 -32 -9 -24 -12 -25 -37
-14 -15 7 -29 13 -31 13 -1 1 3 15 9 32 10 29 12 30 40 20 16 -6 29 -15 29
-19z"/>
<path d="M2281 553 c-40 -14 -69 -28 -63 -32 6 -4 2 -27 -13 -64 l-24 -58 22
-8 c12 -5 51 -20 86 -35 36 -14 68 -26 72 -26 4 0 15 21 25 46 10 25 24 52 32
60 12 12 8 23 -23 79 -20 36 -37 65 -38 64 -1 0 -35 -12 -76 -26z m101 -42
l27 -49 -26 -61 c-23 -53 -28 -59 -45 -50 -17 9 -17 12 -3 39 20 39 20 38 -21
55 -49 20 -51 20 -64 -19 -9 -27 -15 -33 -31 -29 -11 3 -18 11 -16 17 2 6 12
34 22 62 16 47 22 53 64 67 65 21 63 22 93 -32z m-52 -93 c0 -3 -4 -18 -10
-32 -9 -24 -12 -25 -37 -14 -15 7 -29 13 -31 13 -1 1 3 15 9 32 10 29 12 30
40 20 16 -6 29 -15 29 -19z"/>
<path d="M97 554 c-14 -15 -6 -34 14 -34 14 0 19 5 17 17 -3 18 -20 27 -31 17z"/>
<path d="M1595 550 c-4 -6 -3 -14 0 -20 9 -15 35 -12 35 4 0 17 -27 29 -35 16z"/>
<path d="M1022 478 c-21 -26 -44 -98 -37 -115 5 -10 7 -26 6 -35 -3 -21 -1
-21 31 -9 18 7 38 3 78 -14 30 -13 59 -21 65 -19 5 3 21 29 34 60 29 67 28 69
-78 113 -83 35 -85 36 -99 19z m91 -29 c100 -44 99 -41 74 -99 -12 -28 -26
-50 -33 -50 -7 0 -34 9 -60 21 -36 15 -54 18 -70 10 -19 -8 -21 -7 -17 10 3
10 0 19 -6 19 -6 0 -11 5 -11 11 0 14 41 109 47 109 3 0 37 -14 76 -31z"/>
<path d="M1089 398 c-7 -18 -14 -36 -17 -40 -2 -5 4 -8 14 -8 9 0 15 3 11 6
-3 4 0 19 8 35 17 33 18 39 6 39 -5 0 -15 -15 -22 -32z"/>
<path d="M2501 441 c-23 -54 -26 -77 -12 -85 5 -3 7 -15 4 -26 -6 -23 -4 -24
29 -11 18 7 38 3 78 -14 33 -14 59 -20 66 -14 5 4 21 31 34 59 21 44 22 52 9
64 -16 16 -154 76 -174 76 -7 0 -22 -22 -34 -49z m112 8 c100 -44 99 -41 74
-99 -12 -28 -26 -50 -33 -50 -6 0 -33 9 -59 21 -37 16 -53 19 -70 11 -20 -9
-22 -8 -18 9 3 11 0 19 -7 19 -8 0 -10 8 -6 23 8 35 35 97 42 97 3 0 38 -14
77 -31z"/>
<path d="M2589 398 c-7 -18 -14 -36 -17 -40 -2 -5 4 -8 14 -8 9 0 15 3 11 6
-3 4 0 19 8 35 17 33 18 39 6 39 -5 0 -15 -15 -22 -32z"/>
<path d="M80 463 c0 -12 -6 -23 -12 -26 -7 -2 -10 -8 -5 -13 4 -4 15 -1 23 8
12 12 14 20 5 34 -10 18 -10 18 -11 -3z"/>
<path d="M138 438 c-7 -19 18 -39 37 -32 9 4 14 13 11 21 -3 8 -6 17 -6 19 0
10 -39 3 -42 -8z"/>
<path d="M1638 438 c-7 -19 18 -39 37 -32 9 4 14 13 11 21 -3 8 -6 17 -6 19 0
10 -39 3 -42 -8z"/>
<path d="M230 413 c-111 -57 -107 -214 6 -265 55 -24 95 -19 148 17 20 14 46
25 56 25 21 0 27 15 10 25 -5 3 -10 27 -10 52 0 120 -111 197 -210 146z m138
-23 c40 -25 66 -81 58 -126 -4 -18 -2 -35 4 -39 15 -9 12 -25 -5 -25 -8 0 -31
-11 -51 -25 -93 -63 -214 1 -214 113 0 35 37 92 70 109 37 19 101 16 138 -7z"/>
<path d="M340 315 c-10 -11 -10 -19 -2 -27 15 -15 44 -2 40 19 -4 23 -22 27
-38 8z"/>
<path d="M281 301 c-17 -11 -7 -41 13 -41 22 0 30 20 15 36 -9 8 -19 10 -28 5z"/>
<path d="M210 260 c0 -13 7 -20 20 -20 13 0 20 7 20 20 0 13 -7 20 -20 20 -13
0 -20 -7 -20 -20z"/>
<path d="M1730 412 c-111 -55 -107 -213 6 -264 55 -24 95 -19 148 17 20 14 46
25 56 25 21 0 27 15 10 25 -5 3 -10 27 -10 53 0 62 -27 111 -76 139 -47 27
-87 29 -134 5z m138 -22 c40 -25 66 -81 58 -126 -4 -18 -2 -35 4 -39 15 -9 12
-25 -5 -25 -8 0 -31 -11 -51 -25 -146 -99 -296 105 -158 214 35 28 107 28 152
1z"/>
<path d="M1841 321 c-19 -12 -6 -43 16 -39 10 2 18 12 18 22 0 22 -14 29 -34
17z"/>
<path d="M1781 301 c-17 -11 -7 -41 13 -41 22 0 30 20 15 36 -9 8 -19 10 -28
5z"/>
<path d="M1710 260 c0 -13 7 -20 20 -20 13 0 20 7 20 20 0 13 -7 20 -20 20
-13 0 -20 -7 -20 -20z"/>
<path d="M420 399 c0 -14 5 -19 17 -17 26 5 29 38 4 38 -15 0 -21 -6 -21 -21z"/>
<path d="M1313 409 c-18 -5 -39 -19 -48 -31 -28 -40 -16 -108 22 -122 14 -6
15 -5 6 5 -10 10 -9 15 4 24 14 11 14 12 -1 12 -9 0 -16 -4 -16 -9 0 -5 -4 -6
-10 -3 -5 3 -10 21 -10 39 0 39 28 69 65 69 14 0 25 5 25 13 0 8 -1 14 -2 13
-2 0 -17 -5 -35 -10z"/>
<path d="M1920 399 c0 -25 33 -22 38 4 2 12 -3 17 -17 17 -15 0 -21 -6 -21
-21z"/>
<path d="M2811 406 c-41 -15 -61 -41 -61 -79 0 -35 14 -63 37 -71 14 -6 15 -5
6 5 -10 10 -9 15 4 24 14 11 14 12 -1 12 -9 0 -16 -4 -16 -9 0 -5 -4 -6 -10
-3 -5 3 -10 21 -10 39 0 39 28 69 65 69 14 0 25 5 25 13 0 8 -1 14 -2 13 -2 0
-18 -6 -37 -13z"/>
<path d="M2971 391 c-22 -22 -27 -41 -11 -41 6 0 10 7 10 15 0 7 8 18 17 24
10 5 15 12 11 16 -3 4 -16 -3 -27 -14z"/>
<path d="M518 381 c-26 -9 -50 -19 -53 -23 -6 -5 14 -69 53 -170 l11 -26 56
21 c31 11 54 25 52 31 -17 45 -16 52 6 61 23 10 24 25 6 72 -8 22 -14 25 -39
19 -22 -4 -30 -2 -30 9 0 22 -12 23 -62 6z m52 -21 c0 -5 -10 -12 -22 -16 -42
-12 -47 -21 -35 -61 6 -20 19 -38 29 -41 10 -2 18 -9 18 -15 0 -6 9 -1 21 11
11 12 24 20 30 17 13 -9 11 -35 -3 -35 -9 0 -8 -4 2 -11 12 -9 12 -10 -3 -5
-27 9 -73 -4 -55 -15 8 -5 8 -9 2 -9 -17 0 -29 19 -52 85 -21 60 -25 98 -11
89 13 -7 59 7 53 17 -3 5 2 6 10 3 9 -3 16 -10 16 -14z m70 -26 c16 -40 12
-52 -19 -59 -16 -3 -35 -13 -41 -20 -17 -20 -45 -3 -59 35 -8 23 -7 32 2 35
113 42 105 41 117 9z"/>
<path d="M575 325 c-16 -7 -23 -14 -15 -15 11 -1 9 -4 -5 -10 -20 -9 -20 -9 0
-9 17 -1 18 -3 5 -12 -12 -9 -12 -10 3 -5 11 3 30 9 43 12 28 7 33 34 7 34
-15 0 -16 2 -3 10 22 14 0 11 -35 -5z"/>
<path d="M1379 374 c34 -43 26 -86 -20 -110 -18 -9 -29 -11 -29 -4 0 6 -4 8
-10 5 -5 -3 -10 -13 -10 -20 0 -12 5 -12 28 -3 67 28 92 93 52 136 -29 31 -36
28 -11 -4z"/>
<path d="M2018 381 c-26 -9 -50 -19 -53 -23 -6 -5 14 -69 53 -170 l11 -26 56
21 c57 21 59 24 41 67 -4 10 2 19 16 25 24 10 25 25 7 72 -8 22 -14 25 -39 19
-22 -4 -30 -2 -30 9 0 22 -12 23 -62 6z m52 -21 c0 -5 -10 -12 -22 -16 -42
-12 -47 -21 -35 -61 6 -20 19 -38 29 -41 10 -2 18 -9 18 -15 0 -6 9 -1 21 11
11 12 24 20 30 17 13 -9 11 -35 -3 -35 -9 0 -8 -4 2 -11 12 -9 12 -10 -3 -5
-27 9 -73 -4 -55 -15 8 -5 8 -9 2 -9 -6 0 -16 6 -21 13 -11 13 -53 124 -53
137 0 5 16 14 34 21 19 7 33 16 30 21 -3 4 2 5 10 2 9 -3 16 -10 16 -14z m70
-26 c16 -40 12 -52 -19 -59 -16 -3 -35 -13 -41 -20 -17 -20 -45 -3 -59 35 -8
23 -7 32 2 35 113 42 105 41 117 9z"/>
<path d="M2075 325 c-16 -7 -23 -14 -15 -15 11 -1 9 -4 -5 -10 -20 -9 -20 -9
0 -9 17 -1 18 -3 5 -12 -12 -9 -12 -10 3 -5 11 3 30 9 43 12 28 7 33 34 7 34
-15 0 -16 2 -3 10 22 14 0 11 -35 -5z"/>
<path d="M2879 374 c12 -15 21 -37 21 -49 0 -34 -32 -67 -63 -67 -16 0 -27 -6
-27 -14 0 -11 5 -11 28 -2 35 15 72 54 72 78 0 27 -20 68 -37 74 -9 4 -7 -3 6
-20z"/>
<path d="M1343 351 c-3 -11 -9 -18 -14 -15 -5 3 -9 0 -9 -6 0 -6 -4 -8 -10 -5
-5 3 -18 1 -27 -4 -15 -8 -15 -11 -3 -12 8 -1 20 0 25 1 6 2 18 2 28 2 10 0
17 7 17 19 0 21 15 26 24 7 3 -7 5 -4 3 6 -3 27 -27 32 -34 7z"/>
<path d="M2843 351 c-3 -11 -9 -18 -14 -15 -5 3 -9 0 -9 -6 0 -6 -4 -8 -10 -5
-5 3 -18 1 -27 -4 -15 -8 -15 -11 -3 -12 8 -1 20 0 25 1 6 2 18 2 28 2 10 0
17 7 17 19 0 21 15 26 24 7 3 -7 5 -4 3 6 -3 27 -27 32 -34 7z"/>
<path d="M0 321 c0 -6 7 -11 16 -11 9 0 33 -12 55 -27 32 -23 39 -34 39 -63 0
-19 -5 -42 -10 -50 -8 -13 -11 -12 -24 5 -12 17 -16 17 -31 5 -14 -11 -45 -61
-45 -72 0 -2 11 -5 25 -6 29 -2 94 60 97 92 3 47 -5 72 -30 98 -29 29 -92 49
-92 29z m68 -167 c-4 -20 -34 -41 -44 -31 -8 8 24 47 38 47 5 0 8 -7 6 -16z"/>
<path d="M724 311 c-101 -62 -29 -217 83 -180 36 11 73 58 73 92 0 31 -29 76
-60 92 -38 20 -58 19 -96 -4z m36 -11 c13 -8 12 -11 -5 -24 -27 -20 -35 -20
-35 2 0 31 14 39 40 22z m84 -31 c-8 -13 -30 -11 -43 4 -18 23 8 41 31 21 9
-9 15 -21 12 -25z m-126 -71 c-20 -12 -25 -10 -31 13 -3 13 0 22 10 26 11 4
12 8 3 13 -7 5 -9 13 -5 21 6 9 13 0 22 -26 11 -31 11 -40 1 -47z m80 61 c1
-8 -11 -22 -28 -31 -28 -16 -31 -16 -37 -1 -4 10 3 22 18 34 27 20 43 20 47
-2z m65 -18 c5 -22 0 -31 -19 -31 -16 0 -25 38 -10 44 20 8 24 6 29 -13z m-65
-53 c-25 -16 -33 -17 -39 -6 -13 19 -12 21 19 39 24 15 28 15 39 1 11 -13 8
-19 -19 -34z m-44 -30 c-8 -13 -31 -9 -43 6 -10 11 -8 16 6 24 13 8 20 6 29
-6 7 -9 10 -20 8 -24z m76 12 c0 -13 -7 -20 -19 -20 -27 0 -35 17 -14 29 26
15 33 13 33 -9z"/>
<path d="M1464 312 c-52 -33 -82 -122 -40 -122 15 0 56 45 56 62 0 5 -10 12
-22 17 l-22 8 25 16 c39 25 62 23 106 -8 36 -25 43 -35 43 -65 0 -19 -5 -42
-10 -50 -8 -13 -11 -12 -24 5 -14 19 -15 19 -35 1 -11 -10 -23 -27 -26 -37 -8
-23 -28 -25 -45 -4 -14 17 -30 20 -30 5 0 -14 55 -40 84 -40 32 0 92 60 100
100 17 87 -86 158 -160 112z m-4 -65 c0 -8 -9 -22 -19 -31 -26 -23 -39 -2 -15
25 20 22 34 25 34 6z m108 -93 c-4 -20 -34 -41 -44 -31 -8 8 24 47 38 47 5 0
8 -7 6 -16z"/>
<path d="M2224 311 c-101 -62 -29 -217 83 -180 36 11 73 58 73 92 0 31 -29 76
-60 92 -38 20 -58 19 -96 -4z m36 -11 c13 -9 12 -12 -4 -25 -26 -20 -36 -19
-36 3 0 31 14 39 40 22z m84 -31 c-8 -13 -30 -11 -43 4 -18 23 8 41 31 21 9
-9 15 -21 12 -25z m-126 -71 c-20 -12 -25 -10 -31 13 -3 13 0 22 10 26 11 4
12 8 3 13 -7 5 -9 13 -5 21 6 9 13 0 22 -26 11 -31 11 -40 1 -47z m80 61 c1
-8 -11 -22 -28 -31 -28 -16 -31 -16 -37 -1 -4 10 3 22 18 34 27 20 43 20 47
-2z m62 -8 c0 -5 3 -16 6 -25 4 -11 0 -16 -14 -16 -22 0 -37 36 -18 44 18 7
26 7 26 -3z m-62 -63 c-25 -16 -33 -17 -39 -6 -13 19 -12 21 19 39 24 15 28
15 39 1 11 -13 8 -19 -19 -34z m-44 -30 c-8 -13 -31 -9 -43 6 -10 11 -8 16 6
24 13 8 20 6 29 -6 7 -9 10 -20 8 -24z m76 12 c0 -13 -7 -20 -19 -20 -27 0
-35 17 -14 29 26 15 33 13 33 -9z"/>
<path d="M2964 311 c-52 -32 -82 -121 -40 -121 15 0 56 45 56 62 0 5 -10 12
-22 17 -23 8 -22 9 9 27 18 11 33 22 33 27 0 10 -1 9 -36 -12z m-4 -64 c0 -8
-9 -22 -19 -31 -26 -23 -39 -2 -15 25 20 22 34 25 34 6z"/>
<path d="M947 264 c-25 -13 -46 -61 -39 -86 1 -5 -2 -8 -8 -8 -5 0 -14 -9 -20
-20 -9 -18 -8 -20 16 -20 23 0 25 2 13 18 -7 9 1 2 19 -15 37 -39 85 -44 125
-13 49 39 42 116 -14 145 -35 19 -56 18 -92 -1z m96 -22 c10 -10 14 -22 10
-25 -3 -4 -1 -7 5 -7 16 0 15 -41 -2 -63 -9 -11 -20 -15 -31 -10 -13 4 -16 3
-11 -5 5 -8 -2 -12 -22 -12 -31 0 -57 21 -44 35 4 5 2 5 -5 1 -6 -3 -14 -2
-18 4 -3 5 0 10 7 10 9 0 9 3 -2 10 -13 8 -13 13 1 37 8 16 23 27 32 27 9 -1
14 2 11 7 -10 17 53 9 69 -9z"/>
<path d="M1001 218 c-1 -13 -10 -18 -33 -19 l-33 -1 34 -9 c39 -12 44 -9 38
23 -3 14 -5 16 -6 6z"/>
<path d="M2448 264 c-26 -14 -45 -54 -40 -81 2 -7 -2 -13 -7 -13 -6 0 -15 -9
-21 -20 -9 -18 -8 -20 16 -20 23 0 25 2 13 18 -7 9 1 2 19 -15 75 -79 197 1
147 97 -25 48 -76 62 -127 34z m95 -22 c10 -10 14 -22 10 -25 -3 -4 -1 -7 5
-7 15 0 15 -22 0 -55 -8 -19 -16 -24 -31 -19 -13 4 -17 2 -13 -5 10 -16 -49
-14 -63 2 -6 8 -7 18 -3 22 4 5 2 5 -5 1 -6 -3 -14 -2 -18 4 -3 5 0 10 7 10 9
0 9 3 -2 10 -13 8 -13 13 1 37 8 16 23 27 32 27 9 -1 14 2 11 7 -10 17 53 9
69 -9z"/>
<path d="M2501 218 c-1 -13 -10 -18 -33 -19 l-33 -1 34 -9 c39 -12 44 -9 38
23 -3 14 -5 16 -6 6z"/>
<path d="M1125 245 c-7 -6 -15 -46 -19 -91 -8 -99 -2 -106 81 -102 l58 3 6 85
c4 46 5 90 2 96 -6 15 -112 22 -128 9z m84 -36 l-21 -30 -30 28 c-24 22 -28
23 -20 7 6 -11 18 -26 26 -34 22 -17 20 -26 -11 -68 l-27 -37 27 24 27 24 21
-27 c12 -15 24 -25 27 -22 3 3 -3 15 -14 27 -27 30 -26 73 3 101 l24 22 -3
-79 -3 -80 -49 -3 c-32 -2 -52 1 -57 10 -10 15 -12 152 -2 161 3 4 28 7 55 7
l49 0 -22 -31z"/>
<path d="M2626 246 c-18 -15 -30 -164 -15 -182 15 -18 128 -19 133 -1 8 25 14
164 8 174 -10 15 -110 22 -126 9z m82 -36 c-12 -16 -23 -30 -25 -30 -2 0 -15
12 -29 28 -19 20 -23 22 -15 6 5 -11 17 -26 25 -34 22 -17 20 -26 -11 -68
l-27 -37 27 24 27 24 21 -27 c12 -15 24 -25 27 -22 3 3 -3 15 -14 27 -27 30
-26 73 3 101 l24 22 -3 -79 -3 -80 -49 -3 c-32 -2 -52 1 -57 10 -10 15 -12
152 -2 161 3 4 28 7 55 7 l49 0 -23 -30z"/>
<path d="M1305 200 c-16 -17 -16 -23 -4 -51 14 -34 120 -149 137 -149 6 0 -16
26 -47 58 -32 32 -65 72 -74 89 -15 29 -15 32 3 48 20 18 21 17 45 -5 20 -19
24 -30 20 -52 -5 -22 -1 -34 24 -59 25 -25 36 -29 60 -24 24 5 33 1 55 -25 14
-17 26 -25 26 -18 0 8 -13 27 -29 42 -25 24 -32 26 -51 16 -20 -11 -26 -8 -54
19 -26 27 -29 34 -19 51 11 16 9 24 -13 50 -30 35 -54 38 -79 10z"/>
<path d="M2805 200 c-16 -17 -16 -23 -4 -51 14 -34 120 -149 137 -149 6 0 -16
26 -47 58 -32 32 -65 72 -74 89 -15 29 -15 32 3 48 20 18 21 17 45 -5 20 -19
24 -30 20 -52 -5 -22 -1 -34 24 -59 26 -25 37 -30 59 -24 31 8 38 13 30 21 -4
3 -16 0 -28 -6 -20 -11 -26 -8 -54 19 -26 27 -29 34 -19 51 11 16 9 24 -13 50
-30 35 -54 38 -79 10z"/>
<path d="M632 163 c5 -25 28 -28 28 -4 0 12 -6 21 -16 21 -9 0 -14 -7 -12 -17z"/>
<path d="M2132 163 c5 -25 28 -28 28 -4 0 12 -6 21 -16 21 -9 0 -14 -7 -12
-17z"/>
<path d="M2940 140 c0 -5 14 -16 30 -25 35 -18 39 -11 8 16 -26 21 -38 24 -38
9z"/>
<path d="M110 124 c0 -9 7 -14 17 -12 25 5 28 28 4 28 -12 0 -21 -6 -21 -16z"/>
<path d="M520 107 c0 -23 -1 -23 -65 -13 -36 5 -68 6 -72 3 -9 -10 -21 -97
-13 -97 4 0 11 20 14 44 l7 45 52 -6 c29 -3 57 -10 62 -15 6 -6 4 -7 -6 -3
-17 6 -33 -8 -43 -40 -5 -17 -1 -20 29 -20 30 0 35 3 36 25 0 14 3 19 6 12 3
-9 9 -10 17 -3 7 6 22 8 34 4 17 -4 21 -11 17 -24 -4 -11 -2 -19 4 -19 6 0 11
9 11 19 0 10 7 21 15 25 9 3 15 18 15 39 0 33 -2 34 -46 41 -69 9 -74 8 -74
-17z m40 3 c-11 -7 -2 -8 28 -4 43 7 44 7 40 -22 -3 -28 -4 -29 -56 -26 -47 3
-54 1 -59 -17 -6 -22 -27 -28 -38 -10 -8 12 -2 20 17 23 25 3 38 17 38 42 0
18 5 24 23 24 18 0 19 -2 7 -10z"/>
<path d="M2020 109 c0 -20 -3 -21 -70 -14 -67 7 -69 6 -74 -17 -11 -53 -13
-78 -6 -78 4 0 11 21 15 46 6 41 9 45 28 40 12 -3 39 -6 60 -6 20 0 37 -4 37
-10 0 -5 -6 -7 -13 -4 -15 6 -31 -11 -41 -41 -5 -17 -1 -20 29 -20 30 0 35 3
36 25 0 14 3 19 6 12 3 -9 9 -10 17 -3 7 6 22 8 34 4 17 -4 21 -11 17 -24 -4
-11 -2 -19 4 -19 6 0 11 9 11 19 0 10 7 21 15 25 9 3 15 18 15 39 0 33 -2 34
-46 41 -69 9 -74 8 -74 -15z m40 1 c-11 -7 -2 -8 28 -4 43 7 44 7 40 -22 -3
-28 -4 -29 -56 -26 -47 3 -54 1 -59 -17 -6 -22 -27 -28 -38 -10 -8 12 -2 20
17 23 25 3 38 17 38 42 0 18 5 24 23 24 18 0 19 -2 7 -10z"/>
<path d="M125 91 c-27 -5 -30 -10 -33 -49 -2 -23 0 -42 5 -42 4 0 8 17 8 37
l0 38 69 9 c87 11 96 2 71 -69 -3 -11 1 -7 10 8 19 32 33 30 15 -2 -6 -12 -8
-21 -6 -21 3 0 13 14 22 31 13 26 13 33 3 40 -7 4 -16 6 -20 3 -4 -2 -9 3 -13
11 -6 16 -71 19 -131 6z"/>
<path d="M1620 91 c-21 -6 -26 -14 -28 -49 -2 -23 0 -42 5 -42 4 0 8 17 8 37
l0 38 69 9 c87 11 96 2 71 -69 -3 -11 1 -7 10 8 19 32 33 30 15 -2 -6 -12 -8
-21 -6 -21 3 0 13 14 22 31 13 26 13 33 3 40 -7 4 -16 6 -20 3 -4 -2 -9 3 -13
11 -6 16 -87 20 -136 6z"/>
<path d="M738 83 c-27 -3 -38 -9 -39 -21 0 -9 -2 -27 -3 -39 -2 -15 3 -23 12
-23 8 0 12 6 9 14 -3 8 -1 17 6 20 9 3 9 5 0 5 -7 1 -13 8 -13 17 0 29 25 8
31 -27 l6 -34 2 37 1 36 61 7 c33 4 65 3 69 -1 5 -5 10 -25 13 -44 3 -30 4
-28 5 13 l2 47 -62 -2 c-35 -1 -80 -3 -100 -5z"/>
<path d="M2238 83 c-27 -3 -38 -9 -39 -21 0 -9 -2 -27 -3 -39 -2 -15 3 -23 12
-23 8 0 12 6 9 14 -3 8 -1 17 6 20 9 3 9 5 0 5 -7 1 -13 8 -13 17 0 29 25 8
31 -27 l6 -34 2 37 1 36 61 7 c33 4 65 3 69 -1 5 -5 10 -25 13 -44 3 -30 4
-28 5 13 l2 47 -62 -2 c-35 -1 -80 -3 -100 -5z"/>
<path d="M0 66 c0 -5 11 -21 25 -38 14 -16 25 -23 25 -16 0 8 -11 25 -25 38
-14 13 -25 20 -25 16z"/>
<path d="M314 49 c-10 -17 13 -36 27 -22 12 12 4 33 -11 33 -5 0 -12 -5 -16
-11z"/>
<path d="M956 38 c-9 -35 -8 -38 14 -38 17 0 19 3 10 19 -14 27 -13 31 10 31
11 0 20 -4 20 -10 0 -5 -7 -7 -16 -3 -14 5 -15 3 -3 -18 12 -21 14 -22 17 -5
3 15 10 17 35 12 17 -4 35 -12 39 -19 6 -9 8 -8 8 3 0 13 1 13 11 0 9 -13 10
-13 7 0 -3 8 -22 18 -44 23 -21 4 -43 12 -48 17 -19 19 -53 11 -60 -12z"/>
<path d="M1814 49 c-10 -17 13 -36 27 -22 12 12 4 33 -11 33 -5 0 -12 -5 -16
-11z"/>
<path d="M2456 38 c-9 -35 -8 -38 14 -38 17 0 19 3 10 19 -14 27 -13 31 10 31
11 0 20 -4 20 -10 0 -5 -7 -7 -16 -3 -14 5 -15 3 -3 -18 12 -21 14 -22 17 -5
3 15 10 17 35 12 17 -4 35 -12 39 -19 6 -9 8 -8 8 3 0 13 1 13 11 0 9 -13 10
-13 7 0 -3 8 -22 18 -44 23 -21 4 -43 12 -48 17 -19 19 -53 11 -60 -12z"/>
</g>
</svg>
