<?xml version="1.0" standalone="no"?>
<!DOCTYPE svg PUBLIC "-//W3C//DTD SVG 20010904//EN"
 "http://www.w3.org/TR/2001/REC-SVG-20010904/DTD/svg10.dtd">
<svg version="1.0" xmlns="http://www.w3.org/2000/svg"
 width="300.000000pt" height="110.000000pt" viewBox="0 0 300.000000 110.000000"
 preserveAspectRatio="xMidYMid meet">
<metadata>
Created by potrace 1.10, written by Peter Selinger 2001-2011
</metadata>
<g transform="translate(0.000000,110.000000) scale(0.100000,-0.100000)"
fill="#000000" stroke="none">
<path d="M670 882 c-104 -57 -99 -256 10 -330 49 -33 94 -25 142 27 43 46 62
107 54 174 -13 118 -111 179 -206 129z m118 -38 c92 -64 49 -274 -56 -274 -58
0 -110 99 -97 186 13 86 91 132 153 88z"/>
<path d="M1055 886 c-103 -45 -137 -211 -69 -336 36 -66 97 -105 150 -97 106
17 181 161 154 292 -25 119 -135 185 -235 141z m150 -56 c105 -99 42 -340 -89
-340 -37 0 -101 65 -115 117 -27 97 -5 198 52 234 43 27 117 22 152 -11z"/>
<path d="M1515 881 c-88 -40 -130 -126 -123 -254 5 -106 40 -175 112 -224 78
-53 149 -43 214 32 45 51 60 84 73 162 35 206 -113 358 -276 284z m157 -40
c74 -44 107 -170 74 -283 -19 -65 -44 -100 -98 -134 -34 -22 -43 -23 -76 -14
-121 32 -187 224 -122 355 14 27 39 59 56 71 44 29 121 31 166 5z"/>
<path d="M1992 883 c-119 -58 -137 -265 -33 -376 99 -107 226 -52 268 117 13
56 14 75 4 121 -7 29 -22 68 -34 86 -44 64 -134 87 -205 52z m157 -57 c36 -34
55 -100 48 -164 -6 -59 -25 -99 -69 -142 -28 -28 -37 -31 -71 -27 -74 10 -126
88 -127 190 0 71 17 114 61 151 29 25 39 28 82 23 35 -3 56 -12 76 -31z"/>
<path d="M2379 877 c-47 -31 -69 -79 -69 -153 0 -101 67 -194 139 -194 38 0
95 43 117 87 26 55 30 159 7 203 -24 46 -76 80 -123 80 -22 0 -51 -9 -71 -23z
m135 -42 c79 -85 29 -265 -73 -265 -56 0 -112 122 -91 198 22 83 114 121 164
67z"/>
<path d="M595 510 c-10 -11 -44 -30 -76 -41 -63 -23 -64 -25 -74 -93 l-7 -46
136 0 c132 0 137 1 145 23 14 34 51 63 106 81 28 9 61 23 73 32 l23 16 -37 24
-36 25 -42 -21 c-53 -25 -91 -25 -141 0 -48 25 -48 25 -70 0z m118 -47 c20 -3
37 -8 37 -11 0 -3 -17 -23 -37 -44 l-37 -38 -94 0 c-91 0 -93 1 -90 22 4 32
112 89 153 82 17 -3 47 -8 68 -11z"/>
<path d="M2303 507 c-18 -12 -33 -25 -33 -28 0 -3 24 -16 53 -28 106 -46 122
-56 137 -88 l15 -33 133 0 132 0 0 43 c0 52 -20 83 -59 92 -16 3 -50 20 -77
36 l-47 31 -38 -21 c-46 -26 -95 -27 -137 -1 -39 24 -39 24 -79 -3z m322 -57
c103 -49 97 -87 -14 -89 -85 -2 -110 7 -144 52 l-27 36 47 14 c67 21 68 21
138 -13z"/>
<path d="M943 420 c-23 -17 -66 -39 -95 -49 -61 -20 -75 -41 -79 -116 l-3 -50
181 -3 181 -2 12 34 c14 45 35 62 103 85 58 20 117 51 116 61 0 3 -23 20 -51
38 l-51 32 -54 -26 c-62 -31 -122 -29 -178 6 -18 11 -34 20 -37 20 -2 0 -23
-14 -45 -30z m100 -35 c48 -20 128 -19 171 1 35 17 71 13 64 -8 -2 -6 -25 -19
-50 -27 -45 -15 -83 -44 -121 -90 -16 -20 -24 -21 -155 -19 l-137 3 0 35 c0
33 3 36 80 76 92 48 100 49 148 29z"/>
<path d="M1885 420 c-22 -16 -46 -29 -52 -30 -30 -1 -9 -19 55 -49 38 -17 73
-31 79 -31 20 0 66 -44 79 -77 l14 -33 178 2 177 3 3 32 c2 17 -2 50 -8 72
-10 37 -15 42 -71 62 -33 12 -78 35 -100 51 l-40 29 -52 -25 c-64 -32 -101
-33 -163 -1 -27 14 -51 25 -54 25 -3 -1 -23 -14 -45 -30z m98 -35 c48 -20 108
-19 168 2 47 17 50 17 76 0 16 -10 54 -30 86 -44 40 -19 59 -33 63 -50 13 -50
5 -53 -144 -53 l-138 0 -36 43 c-27 32 -53 50 -97 66 -42 16 -58 27 -54 37 7
18 32 18 76 -1z"/>
<path d="M1388 337 c-43 -31 -78 -48 -155 -77 -38 -14 -55 -51 -57 -125 l-1
-55 419 0 c230 0 420 1 422 2 1 2 -1 34 -6 71 -10 82 -25 101 -94 121 -28 9
-77 33 -109 55 l-57 40 -56 -29 c-79 -42 -154 -38 -226 12 -14 10 -28 18 -30
18 -1 0 -24 -15 -50 -33z m105 -37 c71 -32 146 -29 224 7 31 14 34 14 90 -20
32 -19 74 -40 94 -46 20 -7 44 -20 53 -30 21 -23 24 -80 6 -91 -14 -9 -703
-12 -734 -3 -15 4 -17 12 -13 44 6 47 18 60 79 82 26 10 66 31 90 47 51 35 53
35 111 10z"/>
</g>
</svg>
