<!DOCTYPE svg PUBLIC "-//W3C//DTD SVG 1.1//EN" "http://www.w3.org/Graphics/SVG/1.1/DTD/svg11.dtd">
<!-- Uploaded to: SVG Repo, www.svgrepo.com, Transformed by: SVG Repo Mixer Tools -->
<svg version="1.1" id="Uploaded to svgrepo.com" xmlns="http://www.w3.org/2000/svg" xmlns:xlink="http://www.w3.org/1999/xlink" width="800px" height="800px" viewBox="-3.2 -3.2 38.40 38.40" xml:space="preserve" fill="#EDBB10" transform="rotate(0)">
<g id="SVGRepo_bgCarrier" stroke-width="0">
<path transform="translate(-3.2, -3.2), scale(1.2)" d="M16,27.404704105108976C18.118152010724593,26.445691705795625,18.61129460417697,23.462933346138822,20.736018142307934,22.518569746096112C23.93018818420042,21.098875434918288,28.56548456079689,23.484883897131596,30.823164086300558,20.816337972131304C32.90538600693327,18.355180505590035,31.608111789978793,14.275222592718679,30.137150701906727,11.406561288337649C28.77415945218559,8.748462248199473,25.57938589599231,7.892289201122682,23.242196668929033,6.031971440389526C20.74855543476008,4.047123562817371,19.18356179689654,0.002899384794952109,16.000000000000004,0.15390265360474586C12.789246743850063,0.30619567254125907,11.811731254675971,4.767375673416774,9.24032862654219,6.696110533246122C6.733931985495803,8.576086279266804,2.099619036356847,8.192146828982933,1.259318455102452,11.210462230165877C0.4095026414356071,14.262955844689412,4.801610059556311,16.30760203158213,5.720235978810109,19.340097803110975C6.67238756238338,22.483265865890953,4.03684978573575,26.882220676421735,6.620799376655889,28.90936216644279C9.174526013512745,30.912793362598993,13.04314041085558,28.74344891410313,16,27.404704105108976" fill="#EDBB10" strokewidth="0"/>
</g>
<g id="SVGRepo_tracerCarrier" stroke-linecap="round" stroke-linejoin="round"/>
<g id="SVGRepo_iconCarrier"> <style type="text/css"> .sharpcorners_een{fill:#252859;} .st0{fill:#252859;} </style> <path class="sharpcorners_een" d="M16.716,22.964L12.928,31l-1.964-4.598L6,27l4.014-5.784C11.739,22.34,13.792,23,16,23 C16.242,23,16.478,22.979,16.716,22.964z M22.029,21.19c-1.232,0.811-2.635,1.374-4.143,1.637l-1.302,2.763l2.55,5.41l1.964-4.598 L26.062,27L22.029,21.19z M6,12C6,6.477,10.477,2,16,2s10,4.477,10,10c0,5.523-4.477,10-10,10S6,17.523,6,12z M8,12 c0,4.418,3.582,8,8,8s8-3.582,8-8s-3.582-8-8-8S8,7.582,8,12z M9,12c0-3.86,3.14-7,7-7s7,3.14,7,7s-3.14,7-7,7S9,15.86,9,12z M12.853,11.294l1.573,1.534l-0.371,2.166L16,13.97l1.945,1.022l-0.371-2.166l1.573-1.534l-2.174-0.316L16,9.007l-0.972,1.97 L12.853,11.294z"/> </g>
</svg>